<?xml version="1.0" encoding="utf-8"?>
<!-- Generator: Adobe Illustrator 22.0.1, SVG Export Plug-In . SVG Version: 6.00 Build 0)  -->
<svg version="1.1" id="Capa_1" xmlns="http://www.w3.org/2000/svg" xmlns:xlink="http://www.w3.org/1999/xlink" x="0px" y="0px"
	 viewBox="0 0 47 54.6" style="enable-background:new 0 0 47 54.6;" xml:space="preserve">
<style type="text/css">
	.st0{fill:#13203D;}
</style>
<path class="st0" d="M38.7,0.5c0.2,0.1,0.4,0.2,0.6,0.3c0.2,0.4,0.4,0.7,0.4,1.1c0.2,1.3,0.1,2.7-0.5,3.9c-1.6,3.8-3.2,7.6-4.8,11.4
	c-0.1,0.3-0.1,0.4,0,0.7c2.4,4.5,4.9,9.1,7.3,13.6c1.4,2.7,2.8,5.3,4.2,8c0.1,0.2,0.2,0.5,0.1,0.7c-0.2,0.7-0.6,1.4-0.8,2.1
	c-0.3,0.8-0.6,1.6-1,2.4c-0.1,0.1-0.1,0.3-0.2,0.4c-0.2-0.1-0.3-0.3-0.5-0.4c-5-5.2-9.9-10.3-14.9-15.5c-0.1-0.1-0.3-0.3-0.5-0.4
	c-0.2,0.2-0.3,0.4-0.4,0.5c-1.1,1.7-2.3,3.3-3.4,5c-2.4,3.5-4.9,7-7.3,10.5c-0.2,0.3-0.2,0.5,0,0.8c1.2,2.2,2.5,4.5,3.7,6.7
	c0.1,0.2,0.2,0.4,0.1,0.5c-0.3,0.7-0.7,1.3-1,2c-0.2-0.2-0.3-0.3-0.4-0.4c-1.1-1.1-2.2-2.3-3.4-3.4c-0.4-0.4-0.8-0.9-1.3-1.2
	c-1.5-0.9-3-1.8-4.8-1.9c-0.4,0-0.7-0.1-1.1-0.2c-1.2-0.2-2.4-0.3-3.6-0.5c0,0-0.1,0-0.1,0c0.4-0.7,0.7-1.4,1-2.1
	c0.1-0.3,0.3-0.4,0.7-0.4c2.3-0.3,4.6-0.5,6.9-0.8c0.4,0,0.6-0.1,0.7-0.5c0.5-1.1,1-2.3,1.5-3.4c1.5-3.6,2.9-7.2,4.4-10.7
	c0.5-1.2,0.9-2.3,1.4-3.5c-0.2,0-0.4-0.1-0.6-0.1c-4.6-0.6-9.1-1.2-13.7-1.8c-2.3-0.3-4.6-0.6-6.9-0.9c0.1-0.2,0.2-0.4,0.3-0.6
	C1,22,1,22,1.1,21.9c0.9-1.3,1.7-2.7,2.5-4c0.2-0.4,0.5-0.5,0.9-0.5c7.5-0.9,15-1.9,22.5-2.8c0.2,0,0.4-0.2,0.6-0.4
	C29.8,10.8,32,7.4,34.2,4c0.6-0.9,1.2-1.9,2.1-2.6C37.1,0.9,37.8,0.4,38.7,0.5z"/>
</svg>
