<?xml version="1.0" encoding="utf-8"?>
<!-- Generator: Adobe Illustrator 22.0.1, SVG Export Plug-In . SVG Version: 6.00 Build 0)  -->
<svg version="1.1" id="Capa_1" xmlns="http://www.w3.org/2000/svg" xmlns:xlink="http://www.w3.org/1999/xlink" x="0px" y="0px"
	 viewBox="0 0 349.6 94.8" style="enable-background:new 0 0 349.6 94.8;" xml:space="preserve">
<style type="text/css">
	.st0{clip-path:url(#SVGID_2_);fill:url(#SVGID_3_);}
	.st1{clip-path:url(#SVGID_2_);fill:#8A5900;}
</style>
<g>
	<defs>
		<path id="SVGID_1_" d="M0-38C0-8.7,0,20.7,0,50c58.3,13,116.7,26,175,39c58.3-13,116.7-26,175-39c0-29.3,0-58.7,0-88H0z"/>
	</defs>
	<clipPath id="SVGID_2_">
		<use xlink:href="#SVGID_1_"  style="overflow:visible;"/>
	</clipPath>
	<linearGradient id="SVGID_3_" gradientUnits="userSpaceOnUse" x1="175" y1="89" x2="175" y2="-38">
		<stop  offset="1.794872e-02" style="stop-color:#AA4600"/>
		<stop  offset="0.4026" style="stop-color:#F77B1E"/>
		<stop  offset="1" style="stop-color:#F7931E"/>
	</linearGradient>
	<path class="st0" d="M0-38C0-8.7,0,20.7,0,50c58.3,13,116.7,26,175,39c58.3-13,116.7-26,175-39c0-29.3,0-58.7,0-88H0z"/>
	<rect x="9" y="-38" class="st1" width="12" height="112"/>
	<rect x="163" y="-38" class="st1" width="12" height="137"/>
	<rect x="284" y="-38" class="st1" width="6" height="137"/>
	<rect x="205" y="-38" class="st1" width="18" height="135"/>
	<rect x="41.5" y="-37.5" class="st1" width="3" height="112"/>
	<rect x="47.5" y="-37.5" class="st1" width="1.5" height="112"/>
	<rect x="124.5" y="-38.5" class="st1" width="3" height="127.5"/>
	<rect x="130.5" y="-38.5" class="st1" width="1.5" height="127.5"/>
	<rect x="245.5" y="-38.5" class="st1" width="3" height="127.5"/>
	<rect x="251.5" y="-38.5" class="st1" width="1.5" height="127.5"/>
	<rect x="80.5" y="-38" class="st1" width="25.5" height="122.5"/>
	<rect x="321.5" y="-38" class="st1" width="25.5" height="122.5"/>
</g>
</svg>
