<?xml version="1.0" encoding="utf-8"?>
<!-- Generator: Adobe Illustrator 22.0.1, SVG Export Plug-In . SVG Version: 6.00 Build 0)  -->
<svg version="1.1" id="Capa_1" xmlns="http://www.w3.org/2000/svg" xmlns:xlink="http://www.w3.org/1999/xlink" x="0px" y="0px"
	 viewBox="0 0 350 106.9" style="enable-background:new 0 0 350 106.9;" xml:space="preserve">
<style type="text/css">
	.st0{fill:none;}
	.st1{fill:#FFFFFF;}
	.st2{font-family:'TwCenMT-CondensedBold';}
	.st3{font-size:26px;}
	.st4{clip-path:url(#SVGID_2_);fill:url(#SVGID_3_);}
	.st5{clip-path:url(#SVGID_2_);fill:#8A5900;}
</style>
<path class="st0" d="M1.7-21c0,29.3,0,58.7,0,88c58.3,13,116.7,26,175,39c58.3-13,116.7-26,175-39c0-29.3,0-58.7,0-88H1.7z"/>
<text transform="matrix(1 0 0 1 59.2929 37)"><tspan x="0" y="0" class="st1 st2 st3">Olvídate de los trámites, </tspan><tspan x="-4.4" y="31.2" class="st1 st2 st3">nosotros lo hacemos por ti</tspan></text>
<path class="st0" d="M-0.3-21c0,29.3,0,58.7,0,88c58.3,13,116.7,26,175,39c58.3-13,116.7-26,175-39c0-29.3,0-58.7,0-88H-0.3z"/>
<rect x="0.7" y="-21" class="st1" width="350" height="21"/>
<g>
	<g>
		<defs>
			<path id="SVGID_1_" d="M0.7-21c0,29.3,0,58.7,0,88c58.3,13,116.7,26,175,39c58.3-13,116.7-26,175-39c0-29.3,0-58.7,0-88H0.7z"/>
		</defs>
		<clipPath id="SVGID_2_">
			<use xlink:href="#SVGID_1_"  style="overflow:visible;"/>
		</clipPath>
		<linearGradient id="SVGID_3_" gradientUnits="userSpaceOnUse" x1="175.6875" y1="106" x2="175.6875" y2="-21">
			<stop  offset="1.794872e-02" style="stop-color:#AA4600"/>
			<stop  offset="0.4026" style="stop-color:#F77B1E"/>
			<stop  offset="1" style="stop-color:#F7931E"/>
		</linearGradient>
		<path class="st4" d="M0.7-21c0,29.3,0,58.7,0,88c58.3,13,116.7,26,175,39c58.3-13,116.7-26,175-39c0-29.3,0-58.7,0-88H0.7z"/>
		<rect x="9.7" y="-21" class="st5" width="12" height="112"/>
		<rect x="163.7" y="-21" class="st5" width="12" height="137"/>
		<rect x="284.7" y="-21" class="st5" width="6" height="137"/>
		<rect x="205.7" y="-21" class="st5" width="18" height="135"/>
		<rect x="42.2" y="-20.5" class="st5" width="3" height="112"/>
		<rect x="48.2" y="-20.5" class="st5" width="1.5" height="112"/>
		<rect x="125.2" y="-21.5" class="st5" width="3" height="127.5"/>
		<rect x="131.2" y="-21.5" class="st5" width="1.5" height="127.5"/>
		<rect x="246.2" y="-21.5" class="st5" width="3" height="127.5"/>
		<rect x="252.2" y="-21.5" class="st5" width="1.5" height="127.5"/>
		<rect x="81.2" y="-21" class="st5" width="25.5" height="122.5"/>
		<rect x="322.2" y="-21" class="st5" width="25.5" height="122.5"/>
	</g>
</g>
</svg>
