<?xml version="1.0" encoding="utf-8"?>
<!-- Generator: Adobe Illustrator 22.0.1, SVG Export Plug-In . SVG Version: 6.00 Build 0)  -->
<svg version="1.1" id="Capa_1" xmlns="http://www.w3.org/2000/svg" xmlns:xlink="http://www.w3.org/1999/xlink" x="0px" y="0px"
	 viewBox="0 0 37.8 38.8" style="enable-background:new 0 0 37.8 38.8;" xml:space="preserve">
<style type="text/css">
	.st0{fill:url(#SVGID_1_);}
	.st1{fill:#8A5900;}
	.st2{fill:url(#SVGID_2_);}
	.st3{fill:url(#SVGID_3_);}
</style>
<g>
	<g>
		<linearGradient id="SVGID_1_" gradientUnits="userSpaceOnUse" x1="1.3768" y1="19.699" x2="37" y2="19.699">
			<stop  offset="0" style="stop-color:#FFB82A"/>
			<stop  offset="0.1667" style="stop-color:#D49400"/>
			<stop  offset="0.2667" style="stop-color:#FF9E15"/>
			<stop  offset="0.3538" style="stop-color:#FFCD7F"/>
			<stop  offset="0.4256" style="stop-color:#FF9E15"/>
			<stop  offset="0.5564" style="stop-color:#D49400"/>
			<stop  offset="0.6615" style="stop-color:#FF9E15"/>
			<stop  offset="0.7333" style="stop-color:#FFCD7F"/>
			<stop  offset="0.7897" style="stop-color:#FF9E15"/>
			<stop  offset="0.8744" style="stop-color:#D49400"/>
			<stop  offset="1" style="stop-color:#FFB82A"/>
		</linearGradient>
		<path class="st0" d="M24.2,3c0.1,0,0.2-0.1,0.3-0.1c0.2-0.2,0.3-0.1,0.4,0.1c0.2,0.4,0.3,0.8,0.5,1.1c0,0,0,0.1,0,0.1
			c0.1,0.2,0.2,0.4,0.3,0.6c0,0.1,0.1,0.2,0.3,0.1c0.2-0.1,0.5-0.2,0.7-0.3c0.4-0.1,0.7-0.2,1.1-0.4c0.1,0,0.2,0,0.3-0.1
			c0,0,0,0,0.1,0c0.1,0.4,0.2,0.8,0.3,1.2c0,0.4,0.1,0.8,0.2,1.2c0,0.1,0.1,0.1,0.2,0.1c0.4-0.1,0.9-0.1,1.3-0.2
			c0.3,0,0.6,0,0.8-0.1c0.1,0,0.2,0,0.2,0.1c0,0.7,0,1.4,0,2.1c0,0.2,0.1,0.3,0.3,0.3c0.7,0.1,1.5,0.1,2.2,0.2c0,0.1,0,0.1,0,0.2
			c0,0,0,0,0,0.1c0,0,0,0.1,0,0.1c-0.2,0.6-0.3,1.2-0.4,1.8c-0.1,0.3-0.1,0.4,0.2,0.5c0.1,0,0.1,0,0.2,0c0.4,0.1,0.8,0.3,1.2,0.4
			c0.2,0.1,0.5,0.1,0.7,0.3c-0.2,0.4-0.3,0.8-0.5,1.2c-0.1,0.1-0.1,0.2-0.2,0.4c-0.1,0.2-0.2,0.4-0.3,0.5c-0.1,0.1,0,0.2,0.1,0.3
			c0.5,0.2,0.9,0.5,1.4,0.8c0.2,0.2,0.5,0.2,0.7,0.4c-0.2,0.3-0.5,0.6-0.7,0.9c-0.2,0.3-0.5,0.6-0.7,0.9c-0.1,0.1-0.1,0.2,0,0.3
			c0.2,0.2,0.4,0.4,0.7,0.6c0.3,0.3,0.6,0.6,1,0.9c0.1,0.1,0.1,0.2,0,0.3c-0.3,0.3-0.6,0.6-0.9,0.8c-0.2,0.2-0.5,0.4-0.7,0.6
			c-0.1,0.1-0.1,0.2,0,0.3c0.4,0.6,0.8,1.1,1.2,1.7c0.1,0.2,0.1,0.3-0.1,0.4c-0.1,0.1-0.3,0.2-0.4,0.3c-0.3,0.1-0.6,0.3-0.8,0.5
			c-0.1,0-0.3,0.1-0.4,0.2c-0.3,0.2-0.4,0.2-0.2,0.5c0.1,0.1,0.1,0.2,0.2,0.4c0,0,0,0.1,0.1,0.1c0.1,0.4,0.3,0.8,0.5,1.2
			c0.1,0.3,0,0.4-0.2,0.4c-0.1,0-0.2,0.1-0.4,0.1c-0.5,0.2-1,0.3-1.5,0.5c-0.1,0-0.2,0.1-0.1,0.2c0.1,0.7,0.3,1.3,0.4,2
			c0,0.1,0,0.2,0,0.3c-0.4,0-0.8,0.1-1.2,0.1c-0.4,0-0.7,0.1-1.1,0.1c-0.2,0-0.2,0.1-0.2,0.2c0,0.7,0,1.3,0,2c0,0.1,0.1,0.2-0.1,0.3
			c-0.7-0.1-1.4-0.2-2.2-0.2c-0.2,0-0.3,0.1-0.3,0.2c-0.1,0.6-0.3,1.3-0.4,1.9c0,0.2-0.1,0.3-0.3,0.2c-0.6-0.2-1.2-0.4-1.8-0.6
			c-0.2-0.1-0.3-0.1-0.4,0.2c-0.2,0.6-0.5,1.2-0.8,1.8c-0.1,0.2-0.2,0.2-0.3,0.1c-0.6-0.3-1.1-0.6-1.7-1c-0.2-0.1-0.3-0.1-0.4,0.1
			c-0.4,0.5-0.8,1.1-1.1,1.6c-0.1,0.2-0.2,0.2-0.4,0c-0.5-0.5-1-0.9-1.5-1.4c-0.1-0.1-0.2-0.1-0.4,0c-0.5,0.4-1,0.9-1.4,1.3
			c-0.2,0.2-0.3,0.2-0.4,0c-0.1-0.2-0.3-0.4-0.4-0.6c-0.2-0.3-0.5-0.7-0.7-1c-0.1-0.2-0.2-0.2-0.4-0.1c-0.6,0.3-1.1,0.6-1.7,1
			c-0.2,0.1-0.3,0.1-0.4-0.1c-0.2-0.6-0.5-1.2-0.8-1.8c-0.1-0.2-0.2-0.3-0.4-0.2c-0.6,0.2-1.2,0.4-1.8,0.6c-0.2,0.1-0.3,0-0.3-0.2
			c-0.1-0.7-0.3-1.3-0.4-2c0-0.1,0-0.2-0.2-0.2c-0.8,0.1-1.5,0.2-2.3,0.3c-0.2-0.1,0-0.3-0.1-0.4c0-0.4,0-0.8,0-1.2
			c0-0.1,0-0.2,0-0.2c0-0.8,0-0.8-0.8-0.8c-0.4-0.1-0.8-0.1-1.2-0.1c-0.2-0.1-0.3-0.1-0.5-0.1c0.1-0.4,0.1-0.7,0.2-1.1
			c0.1-0.4,0.2-0.8,0.3-1.3c0.1-0.1,0-0.1-0.1-0.2c-0.3-0.1-0.7-0.2-1-0.3c-0.4-0.1-0.8-0.3-1.2-0.4c0-0.1,0-0.2,0.1-0.3
			c0.2-0.4,0.3-0.8,0.5-1.2c0.1-0.2,0.2-0.4,0.3-0.7c0.1-0.1,0-0.2-0.1-0.3c-0.7-0.4-1.3-0.7-2-1.1c0,0,0-0.1,0-0.1
			c0.4-0.5,0.7-0.9,1-1.4c0.5-0.5,0.5-0.5,0-1c-0.1-0.1-0.2-0.1-0.3-0.2c-0.2-0.2-0.5-0.5-0.7-0.7c-0.1-0.1-0.2-0.2-0.3-0.3
			c-0.1-0.1-0.1-0.2,0-0.2c0.1-0.1,0.2-0.2,0.3-0.3c0.4-0.3,0.7-0.6,1-0.9c0.1-0.1,0.1-0.1,0.2-0.2c0.3-0.2,0.3-0.2,0-0.6
			c-0.1-0.2-0.2-0.3-0.3-0.4c0,0,0,0-0.1-0.1l0,0C2.3,16.8,2,16.4,1.7,16c0,0,0,0,0-0.1c0.4-0.2,0.8-0.5,1.2-0.7
			c0.3-0.1,0.5-0.3,0.8-0.4c0.2,0,0.2-0.1,0.1-0.3c-0.1-0.3-0.3-0.6-0.4-0.9c-0.1-0.4-0.3-0.7-0.5-1c0,0,0-0.1,0-0.1
			c0,0,0-0.1,0-0.1c0.4-0.1,0.8-0.2,1.2-0.4c0.3-0.1,0.6-0.2,0.9-0.2c0.3-0.1,0.4-0.2,0.2-0.5c-0.1-0.4-0.1-0.8-0.3-1.2
			c0-0.2-0.1-0.5-0.1-0.7C4.7,9.2,4.8,9.2,5,9.2C5.5,9.1,6.1,9,6.6,9c0.1,0,0.1,0,0.2,0c0.4,0,0.4,0,0.4-0.5c0-0.3,0-0.5,0-0.8
			c0-0.4,0-0.8,0-1.2c0,0,0-0.1,0-0.1c0,0,0.1,0,0.1-0.1c0.1,0,0.2,0,0.3,0C8,6.5,8.4,6.6,8.8,6.6c0.2,0,0.5,0.1,0.7,0.1
			c0.1,0,0.2,0,0.2-0.2C9.8,6.1,9.9,5.8,10,5.4c0.1-0.3,0.1-0.6,0.2-0.9c0-0.2,0.1-0.2,0.3-0.2c0.6,0.2,1.2,0.4,1.8,0.6
			C12.6,5,12.7,5,12.8,4.7c0.1-0.2,0.1-0.4,0.2-0.5c0.2-0.4,0.4-0.8,0.5-1.2c0,0,0.1-0.1,0.1-0.1c0.1-0.2,0.2-0.2,0.4-0.1
			c0.6,0.3,1.2,0.7,1.7,1c0.1,0,0.2,0.2,0.3,0c0.2-0.3,0.4-0.5,0.6-0.8c0.2-0.3,0.4-0.5,0.6-0.8c0.2-0.3,0.3-0.2,0.5,0
			c0.2,0.2,0.4,0.4,0.7,0.6c0.1,0.1,0.2,0.2,0.3,0.3c0,0,0,0,0,0c0.6,0.6,0.6,0.6,1.2,0.1c0.3-0.3,0.6-0.6,0.9-0.8c0,0,0,0,0,0
			C21.1,2,21.1,2,21.4,2.4c0.1,0.2,0.3,0.4,0.4,0.6c0,0,0,0.1,0.1,0.1c0.1,0.2,0.2,0.4,0.4,0.5C22.5,4,22.5,4,23,3.7c0,0,0,0,0,0
			C23.4,3.5,23.8,3.3,24.2,3C24.1,3,24.2,3,24.2,3z M4.5,19.7c0,8.1,6.6,14.6,14.5,14.7c8.3,0.1,14.8-6.6,14.8-14.6
			C33.9,11.5,27.3,5,19.2,5C11,5,4.5,11.6,4.5,19.7z"/>
		<path class="st1" d="M4.5,19.7C4.5,11.6,11,5,19.2,5c8.1,0,14.7,6.6,14.7,14.8c-0.1,8-6.6,14.6-14.8,14.6
			C11.1,34.3,4.5,27.8,4.5,19.7z M10.4,28.3c0.1,0.3,0.4,0.4,0.6,0.6c0.7,0.7,1.6,1.3,2.5,1.8c2.1,1.1,4.3,1.6,6.7,1.4
			c1.3-0.1,2.6-0.4,3.8-0.9c1.5-0.6,2.8-1.5,3.9-2.6c0.8-0.8,1.5-1.7,2.1-2.7c1-1.7,1.5-3.5,1.6-5.4c0-0.8,0-1.6-0.1-2.4
			c-0.2-1.3-0.6-2.5-1.1-3.7c-0.5-1-1-1.9-1.7-2.7c-0.3-0.3-0.5-0.6-0.8-0.8c-1-1.1-2.2-1.8-3.5-2.4c-1.8-0.8-3.7-1.2-5.8-1.1
			c-1.2,0.1-2.3,0.3-3.4,0.6c-1.3,0.5-2.6,1.1-3.7,2c-0.8,0.7-1.6,1.4-2.2,2.3c-0.4,0.5-0.7,1-1,1.6c-0.5,0.9-0.9,1.9-1.1,3
			c-0.3,1.3-0.4,2.7-0.3,4c0.1,1,0.3,1.9,0.6,2.8c0.5,1.5,1.2,2.8,2.2,4C9.9,27.9,10,28.2,10.4,28.3z"/>
		<linearGradient id="SVGID_2_" gradientUnits="userSpaceOnUse" x1="10.3517" y1="21.4492" x2="31.5847" y2="21.4492">
			<stop  offset="0" style="stop-color:#FFB82A"/>
			<stop  offset="0.1667" style="stop-color:#D49400"/>
			<stop  offset="0.2667" style="stop-color:#FF9E15"/>
			<stop  offset="0.3538" style="stop-color:#FFCD7F"/>
			<stop  offset="0.4256" style="stop-color:#FF9E15"/>
			<stop  offset="0.5564" style="stop-color:#D49400"/>
			<stop  offset="0.6615" style="stop-color:#FF9E15"/>
			<stop  offset="0.7333" style="stop-color:#FFCD7F"/>
			<stop  offset="0.7897" style="stop-color:#FF9E15"/>
			<stop  offset="0.8744" style="stop-color:#D49400"/>
			<stop  offset="1" style="stop-color:#FFB82A"/>
		</linearGradient>
		<path class="st2" d="M24.1,14.6c0.5-0.5,0.9-1,1.4-1.4c0.7-0.7,1.5-1.5,2.2-2.2c0,0,0.1-0.1,0.1-0.1c0.4,0.2,0.6,0.5,0.8,0.8
			c0.7,0.8,1.3,1.7,1.7,2.7c0.6,1.2,0.9,2.4,1.1,3.7c0.1,0.8,0.1,1.6,0.1,2.4c-0.1,1.9-0.7,3.7-1.6,5.4c-0.6,1-1.3,1.9-2.1,2.7
			c-1.1,1.1-2.5,2-3.9,2.6c-1.2,0.5-2.5,0.8-3.8,0.9c-2.4,0.2-4.6-0.3-6.7-1.4c-0.9-0.5-1.8-1-2.5-1.8c-0.2-0.2-0.5-0.3-0.6-0.6
			c0.4-0.4,0.8-0.8,1.2-1.2c0.4-0.4,0.7-0.8,1.1-1.1C13.1,25.5,23.4,15.3,24.1,14.6z"/>
		<linearGradient id="SVGID_3_" gradientUnits="userSpaceOnUse" x1="6.6534" y1="17.7509" x2="27.8864" y2="17.7509">
			<stop  offset="0" style="stop-color:#FF9E15"/>
			<stop  offset="0.1667" style="stop-color:#D49400"/>
			<stop  offset="0.2564" style="stop-color:#BF7A00"/>
			<stop  offset="0.3538" style="stop-color:#FFCD7F"/>
			<stop  offset="0.4769" style="stop-color:#BF7A00"/>
			<stop  offset="0.6821" style="stop-color:#BF7A00"/>
			<stop  offset="0.7333" style="stop-color:#FFCD7F"/>
			<stop  offset="0.7795" style="stop-color:#BF7A00"/>
			<stop  offset="1" style="stop-color:#FF9E15"/>
		</linearGradient>
		<path class="st3" d="M14.1,24.6c-0.5,0.5-0.9,1-1.4,1.4c-0.7,0.7-1.5,1.5-2.2,2.2c0,0-0.1,0.1-0.1,0.1c-0.4-0.2-0.6-0.5-0.8-0.8
			c-0.7-0.8-1.3-1.7-1.7-2.7c-0.6-1.2-0.9-2.4-1.1-3.7c-0.1-0.8-0.1-1.6-0.1-2.4c0.1-1.9,0.7-3.7,1.6-5.4c0.6-1,1.3-1.9,2.1-2.7
			c1.1-1.1,2.5-2,3.9-2.6c1.2-0.5,2.5-0.8,3.8-0.9c2.4-0.2,4.6,0.3,6.7,1.4c0.9,0.5,1.8,1,2.5,1.8c0.2,0.2,0.5,0.3,0.6,0.6
			c-0.4,0.4-0.8,0.8-1.2,1.2c-0.4,0.4-0.7,0.8-1.1,1.1C25.1,13.7,14.8,23.9,14.1,24.6z"/>
	</g>
	<path class="st1" d="M11,20.4c-0.9,0-1.6,0-2.6,0c3.6-3.6,7.1-7.2,10.6-10.8c1.3,1.2,2.5,2.5,3.9,3.7c0-0.6,0-1.2,0-1.9
		c1,0,1.9,0,2.9,0c0,0.1,0,0.3,0,0.4c0,1.4,0,2.8,0,4.2c0,0.2,0.1,0.4,0.2,0.6c1.1,1.1,2.2,2.2,3.3,3.4c0.1,0.1,0.2,0.2,0.3,0.3
		c-0.9,0-1.7,0-2.6,0c0,2.3,0,4.6,0,6.9c-2.2,0-4.3,0-6.6,0c0-1.9,0-3.7,0-5.6c-1,0-1.9,0-2.9,0c0,1.9,0,3.7,0,5.6
		c-2.2,0-4.4,0-6.6,0C11,25.1,11,22.8,11,20.4z"/>
</g>
</svg>
