<?xml version="1.0" encoding="utf-8"?>
<!-- Generator: Adobe Illustrator 22.0.1, SVG Export Plug-In . SVG Version: 6.00 Build 0)  -->
<svg version="1.1" id="Capa_1" xmlns="http://www.w3.org/2000/svg" xmlns:xlink="http://www.w3.org/1999/xlink" x="0px" y="0px"
	 viewBox="0 0 60 30.4" style="enable-background:new 0 0 60 30.4;" xml:space="preserve">
<style type="text/css">
	.st0{fill:#FFFFFF;}
	.st1{fill:#0071BC;}
	.st2{fill:#29ABE2;}
	.st3{opacity:0.5;fill:#0071BC;}
	.st4{fill:#008CD2;}
	.st5{opacity:0.4;fill:#FFFFFF;}
	.st6{fill:none;stroke:#081B53;stroke-miterlimit:10;}
	.st7{fill:#13203D;}
</style>
<g>
	<path class="st0" d="M52.8,27H7.2C4.9,27,3,25.1,3,22.8V7.2C3,4.9,4.9,3,7.2,3h45.7C55.1,3,57,4.9,57,7.2v15.7
		C57,25.1,55.1,27,52.8,27z"/>
	<path class="st1" d="M57,23c0,0,1-5-5-8c0,0,3,5,1,7s-2,3-1,4s2.6,0.6,2.6,0.6S57,26,57,23S57,23,57,23z"/>
	<path class="st2" d="M21,11c0,0-0.8-6-11.9-8c0,0-3.8-0.4-4.9,1.3C3.4,5.2,3.1,5.9,3,7.8c0,0.2,0.1,0.8,0.4,1C4.1,9.5,5.7,10.5,8,9
		C11,7,20,9,21,11z"/>
	<path class="st1" d="M9,9c0,0,8.5-1.7,13,3.5c0.4,0.4,1.6,2.2,2.3,3.4c1.1,1.8,2.3,4.6,1.7,7c-0.9,3.6-7.5,4-9.5,0.3
		c-0.2-0.4-0.5-1.9-0.1-2.9c0.1-0.4,0.3-0.9,0.6-1.4C18,17,20,14,9,9z"/>
	<path class="st1" d="M3,9.1c0,0,2,2.9,6,0.9c0,0,2,0,2,1s-1,1-2,1S4,11.2,3,9.1z"/>
	<path class="st2" d="M12,11c0,0,1.9,1,3.1,1.9c0.5,0.4,1.2,1.4,1.4,1.8c0.4,0.7,0.7,1.7-0.5,2.3c0,0-2,1-2-1S14,14,12,11z"/>
	<path class="st3" d="M3,9.6c0,0,3,4.4,7,3.4c2.7-0.7,3.1,0.5,3.1,1.3c0,0.4-0.3,0.9-0.7,1.1C11.9,15.7,11.1,16,10,16
		C8,16,3,12.2,3,9.6z"/>
	<path class="st2" d="M3,11.2c0,0,6,6.8,5,8.8s-2,2-3,2s-2-0.9-2-2c0,0,0-1,1-2S4,12.3,3,11.2z"/>
	<path class="st1" d="M8,16c0,0,3,1,4,0s2,0,1,1S9,17,8,16"/>
	<path class="st1" d="M17,17c0,0-2,2-3,1c-0.7-0.7-1.4-0.4-1.7-0.2c-0.2,0.1-0.3,0.3-0.2,0.5c0.1,0.3,0.3,0.7,1,0.7
		C14,19,16,19,17,17z"/>
	<path class="st4" d="M8,17c0,0,2,2,1,3s0,2,0,2s2,1,2-1S9,18,8,17z"/>
	<path class="st2" d="M9,17c0,0,3,3,5,3s1,3-1,2C13,22,10,19,9,17z"/>
	<path class="st4" d="M13.4,3c0,0,19.6,7,16.6,17s11,8,12,4S39.8,9,13.4,3z"/>
	<path class="st1" d="M42,27c0,0,6.6-6.6-4-15.2c-0.3-0.3-1.1-1.4-1-2.2c0.1-2,1-5.2,6-1.6C50,13,45,27,42,27z"/>
	<path class="st2" d="M17,3c0,0,12,1,14,3s5,1,5-1S17,3,17,3z"/>
	<path class="st2" d="M51.3,3c0.2-0.2,2.9,0,3.7,0.6c1,0.7,2.2,1.7,2,4.1C56.8,10,48,9,49,16C49,16,42.7,7,51.3,3z"/>
	<path class="st3" d="M32.9,3c0,0,7.1,1,9.1,3s5,0,4-2S32.9,3,32.9,3z"/>
	<path class="st4" d="M3,22c0,0,1,3,4,2s3.1,3,1.1,3s-2.4-0.2-3.7-1.1C3,25,3,22,3,22z"/>
	<path class="st2" d="M12,22c0,0,1.9,2.8,4.7,3c0.1,0,0.5,0.1,0.6,0.3c0.4,0.6,1,1.7-1.3,1.7C13,27,12,22,12,22z"/>
	<path class="st3" d="M20,7c0,0,4,4,4,6s1,3,2,2S25,10,20,7z"/>
	<path class="st4" d="M27,12c0,0,1,5-1,5c-1.5,0,0.3,2.1,1.3,2.5C27.7,19.6,29,16,27,12z"/>
	<path class="st2" d="M22,27c0,0,5,0,5-5s3-1,2,0S27,27,22,27z"/>
	<path class="st4" d="M50,15c0,0,3,5,0,7s-4-2-3-3S51,19,50,15z"/>
	<path class="st2" d="M44.4,27c0,0,0.6-2,2.6-3s3,0,3,0s1,1,0,2S46.8,25,44.4,27z"/>
	<path class="st3" d="M57,19c0,0-1-4-4-5s0-5,2-3S57,19,57,19z"/>
	<path class="st3" d="M37,5c0,0-0.8,2.5-4.1,2.9c-0.3,0-0.9,0.4-0.8,0.8C32.3,9.6,33,10.7,35,10C38,9,37,5,37,5z"/>
	<path class="st3" d="M29,23.3c0,0,0,1.8-0.9,1.8s-1.9,2.7,0,1.8S29,23.3,29,23.3z"/>
	<path class="st3" d="M8,23c0,0,1,1,2,0s2-1,2,0S9,24,8,23z"/>
	<path class="st2" d="M9,24c0,0,2,2,3,1s2,2,1,2S11,27,9,24z"/>
	<path class="st5" d="M52.8,27H7.2C4.9,27,3,25.1,3,22.8V7.2C3,4.9,4.9,3,7.2,3h45.7C55.1,3,57,4.9,57,7.2v15.7
		C57,25.1,55.1,27,52.8,27z"/>
	<path class="st6" d="M53.9,28.8H6.1c-2.5,0-4.6-2-4.6-4.6V6.1c0-2.5,2-4.6,4.6-4.6h47.9c2.5,0,4.6,2,4.6,4.6v18.2
		C58.5,26.8,56.5,28.8,53.9,28.8z"/>
	<g>
		<g>
			<path class="st7" d="M9.8,12.4c0.1-0.3,0.1-0.6,0-0.7c0-0.2-0.1-0.3-0.2-0.4c-0.1-0.1-0.3-0.1-0.6-0.2c0-0.1,0-0.2,0-0.4
				c0-0.1,0-0.3,0-0.4c0.3,0,0.6,0,0.9,0s0.6,0,1,0c0.3,0,0.6,0,1,0s0.6,0,1,0c0,0.1,0,0.3,0,0.4c0,0.1-0.1,0.3-0.1,0.4
				c-0.2,0-0.4,0.1-0.6,0.2c-0.1,0.1-0.2,0.2-0.3,0.4c-0.1,0.2-0.2,0.5-0.2,0.8l-0.9,5.4c-0.1,0.3-0.1,0.6-0.1,0.8
				c0,0.2,0.1,0.3,0.2,0.4s0.3,0.1,0.6,0.2c0,0.1,0,0.2,0,0.4c0,0.1,0,0.3,0,0.4c-0.3,0-0.6,0-0.9,0s-0.6,0-1,0c-0.3,0-0.7,0-1,0
				s-0.6,0-0.9,0c0-0.1,0-0.3,0-0.4c0-0.1,0.1-0.2,0.1-0.4c0.3,0,0.4-0.1,0.6-0.2s0.2-0.2,0.3-0.4c0.1-0.2,0.1-0.4,0.2-0.8L9.8,12.4
				z"/>
			<path class="st7" d="M13.1,19.9l0.7-3.9C14,15.5,14,15.2,14,15c0-0.2-0.1-0.3-0.2-0.4s-0.3-0.1-0.6-0.1c0-0.1,0-0.2,0-0.4
				c0-0.1,0-0.2,0.1-0.3c0.2,0,0.5-0.1,0.8-0.1c0.3-0.1,0.6-0.1,0.9-0.2c0.3-0.1,0.5-0.2,0.7-0.3c0.2,0.1,0.3,0.2,0.3,0.3
				c0.1,0.1,0.1,0.3,0,0.6c-0.1,0.4-0.1,0.7-0.2,0.9s-0.2,0.5-0.3,0.8l-0.3,2.4l-0.3,1.5H13.1z M18.4,13.3c0.2,0,0.4,0,0.6,0.1
				c0.2,0.1,0.3,0.2,0.5,0.4c0.1,0.2,0.2,0.5,0.2,0.8c0,0.4,0,0.8-0.1,1.3l-0.4,1.5C19.1,18,19,18.3,19,18.4c0,0.2,0,0.3,0,0.3
				c0,0,0.1,0.1,0.2,0.1c0.1,0,0.2,0,0.3-0.1s0.2-0.2,0.4-0.3c0.1,0.1,0.2,0.2,0.2,0.3s0.1,0.2,0.1,0.3c-0.3,0.3-0.6,0.5-0.9,0.7
				c-0.3,0.1-0.6,0.2-0.9,0.2c-0.4,0-0.7-0.1-0.9-0.3c-0.2-0.2-0.2-0.5-0.2-0.8c0-0.4,0.1-0.8,0.2-1.2l0.3-1.4
				c0.1-0.4,0.1-0.7,0.1-0.9c0-0.2,0-0.4-0.1-0.5s-0.2-0.1-0.3-0.1c-0.2,0-0.4,0.1-0.6,0.3c-0.2,0.2-0.4,0.4-0.7,0.7
				c-0.2,0.3-0.4,0.7-0.6,1.2c-0.2,0.5-0.3,1-0.4,1.6l-0.1-1.7l0.6-1.2c0.1-0.3,0.3-0.5,0.5-0.8c0.2-0.3,0.4-0.5,0.7-0.7
				c0.2-0.2,0.5-0.4,0.8-0.5C17.9,13.4,18.1,13.3,18.4,13.3z"/>
			<path class="st7" d="M22.8,20c-0.5,0-0.9-0.1-1.2-0.3c-0.3-0.2-0.5-0.5-0.6-0.8c-0.1-0.3-0.2-0.7-0.2-1.1c0-0.4,0-0.8,0.1-1.2
				c0.1-0.4,0.2-0.8,0.4-1.2c0.2-0.4,0.4-0.7,0.7-1s0.6-0.5,1-0.7s0.9-0.3,1.4-0.3c0.3,0,0.6,0,0.9,0.1c0.3,0.1,0.5,0.2,0.7,0.3
				c-0.1,0.2-0.2,0.5-0.2,0.8c-0.1,0.3-0.1,0.5-0.1,0.8c-0.2,0.1-0.5,0.1-0.9,0.1c0-0.4,0-0.7-0.1-0.9c-0.1-0.2-0.3-0.3-0.5-0.3
				c-0.3,0-0.5,0.1-0.7,0.3s-0.4,0.4-0.5,0.8c-0.1,0.3-0.2,0.7-0.3,1.1c0,0.3-0.1,0.6-0.1,0.9c0,0.3,0,0.6,0.1,0.8s0.2,0.5,0.3,0.6
				c0.2,0.1,0.4,0.2,0.7,0.2c0.3,0,0.6-0.1,0.8-0.2c0.3-0.1,0.5-0.3,0.7-0.5c0.1,0.1,0.1,0.2,0.2,0.3c0,0.1,0.1,0.2,0.1,0.4
				c-0.4,0.4-0.8,0.7-1.3,0.9C23.8,19.9,23.3,20,22.8,20z"/>
			<path class="st7" d="M27.6,20c-0.4,0-0.7-0.1-0.9-0.3s-0.3-0.5-0.3-0.9c0-0.1,0-0.3,0-0.4c0-0.2,0-0.4,0.1-0.6
				c0-0.3,0.1-0.6,0.2-1c0.1-0.4,0.2-1,0.3-1.7c0.1-0.7,0.3-1.5,0.5-2.5c0.1-0.4,0.1-0.7,0.1-0.9s-0.1-0.3-0.2-0.4
				c-0.1-0.1-0.3-0.1-0.6-0.1c0-0.1,0-0.2,0-0.4c0-0.1,0-0.2,0.1-0.3c0.2,0,0.5-0.1,0.8-0.1c0.3-0.1,0.6-0.1,0.8-0.2
				c0.3-0.1,0.5-0.2,0.7-0.3c0.2,0.1,0.3,0.2,0.3,0.4c0.1,0.1,0.1,0.4,0,0.7C29.4,12,29.2,13,29,14s-0.4,2-0.6,2.9
				c-0.1,0.6-0.2,1-0.2,1.2c0,0.3,0,0.5,0,0.5s0.1,0.1,0.2,0.1s0.2,0,0.3-0.1c0.1-0.1,0.2-0.1,0.4-0.3c0.1,0.1,0.1,0.2,0.2,0.3
				c0.1,0.1,0.1,0.2,0.1,0.3c-0.3,0.3-0.5,0.5-0.9,0.7C28.2,19.9,27.9,20,27.6,20z"/>
			<path class="st7" d="M31.7,20c-0.3,0-0.5-0.1-0.7-0.2s-0.3-0.4-0.3-0.7c-0.1-0.3-0.1-0.6,0-1c0-0.4,0.1-0.8,0.2-1.2
				c0.1-0.5,0.2-0.9,0.3-1.3c0.1-0.3,0.1-0.5,0-0.7c0-0.1-0.1-0.2-0.2-0.3s-0.3-0.1-0.5-0.1c0-0.1,0-0.2,0-0.3c0-0.1,0-0.2,0.1-0.3
				c0.2,0,0.5-0.1,0.7-0.1c0.3-0.1,0.6-0.1,0.8-0.2c0.3-0.1,0.5-0.2,0.7-0.3c0.1,0.1,0.2,0.2,0.3,0.2s0.1,0.2,0.1,0.4
				c0,0.2-0.1,0.5-0.1,0.9c-0.1,0.4-0.2,0.9-0.4,1.6c-0.1,0.5-0.2,0.9-0.2,1.2c0,0.3,0,0.5,0.1,0.7s0.2,0.2,0.3,0.2
				c0.2,0,0.4-0.1,0.7-0.4c0.3-0.3,0.6-0.7,0.9-1.2c0.3-0.6,0.5-1.3,0.7-2.1l0.3-1.4h1.7L36.4,17c-0.1,0.6-0.2,1-0.2,1.3
				s0,0.4,0,0.5c0,0.1,0.1,0.1,0.2,0.1c0.1,0,0.4-0.1,0.6-0.4c0.1,0.1,0.1,0.2,0.2,0.3c0.1,0.1,0.1,0.2,0.1,0.3
				c-0.3,0.3-0.5,0.5-0.9,0.7c-0.3,0.2-0.6,0.3-0.9,0.3c-0.3,0-0.6-0.1-0.8-0.2c-0.2-0.1-0.3-0.3-0.3-0.6c0-0.2,0-0.5,0-0.8
				c0-0.1,0-0.2,0.1-0.3s0.1-0.2,0.1-0.4h0c-0.1,0.3-0.3,0.6-0.5,0.8c-0.2,0.3-0.4,0.5-0.7,0.7c-0.3,0.2-0.5,0.4-0.8,0.5
				C32.3,19.9,32,20,31.7,20z"/>
			<path class="st7" d="M44.4,13.3c0.3,0.1,0.5,0.2,0.6,0.4c0.1,0.2,0.2,0.4,0.2,0.7c0,0.3,0,0.5-0.1,0.9c-0.1,0.3-0.2,0.7-0.5,1.1
				s-0.5,0.8-0.8,1.4s-0.8,1.1-1.3,1.8c-0.6,0.8-1.2,1.5-1.6,2c-0.4,0.5-0.8,0.9-1.1,1.2c-0.3,0.3-0.6,0.4-0.8,0.5s-0.5,0.1-0.8,0.1
				c-0.2,0-0.5,0-0.7-0.1S37,23,36.8,22.8c0-0.2,0-0.3,0-0.5c0-0.2,0.1-0.4,0.1-0.5c0.2,0.1,0.5,0.1,0.7,0.2c0.3,0,0.5,0.1,0.7,0.1
				c0.2,0,0.5,0,0.7-0.1c0.2-0.1,0.5-0.2,0.7-0.4c0.2-0.2,0.5-0.5,0.9-0.9c0.3-0.4,0.7-0.9,1.2-1.5c0.4-0.6,0.7-1.1,1-1.5
				c0.2-0.4,0.4-0.8,0.5-1.2s0.2-0.6,0.2-0.9c0-0.2-0.1-0.4-0.2-0.6c-0.1-0.1-0.4-0.2-0.7-0.3c0-0.2,0-0.5,0-0.7
				c0.2,0,0.4-0.1,0.6-0.2c0.2-0.1,0.4-0.1,0.7-0.2C44.1,13.5,44.3,13.4,44.4,13.3z M40.6,13.3c0.1,0,0.2,0.1,0.3,0.2
				c0.1,0.1,0.1,0.2,0.2,0.3c0.1,0.1,0.1,0.4,0.2,0.6c0.2,0.8,0.3,1.6,0.4,2.4c0.1,0.8,0.2,1.6,0.2,2.4l-1.4,1.9
				c0-0.8-0.1-1.5-0.2-2.2c-0.1-0.7-0.2-1.3-0.3-1.9s-0.2-1.1-0.4-1.6c-0.1-0.3-0.2-0.6-0.3-0.7s-0.4-0.2-0.7-0.2c0-0.1,0-0.3,0-0.4
				c0-0.1,0-0.2,0.1-0.3c0.2,0,0.4-0.1,0.6-0.1c0.2-0.1,0.5-0.1,0.7-0.2C40.3,13.5,40.5,13.4,40.6,13.3z"/>
			<path class="st7" d="M47.5,20c-0.5,0-0.9-0.1-1.1-0.3c-0.3-0.2-0.5-0.4-0.6-0.8s-0.2-0.7-0.2-1.1c0-0.4,0-0.8,0.1-1.2
				c0.1-0.7,0.4-1.4,0.7-1.9c0.3-0.5,0.8-0.9,1.2-1.1c0.5-0.3,1-0.4,1.5-0.4c0.4,0,0.8,0.1,1.1,0.2c0.3,0.2,0.5,0.4,0.6,0.6
				c0.1,0.3,0.1,0.5,0.1,0.8c-0.1,0.3-0.2,0.6-0.4,0.8c-0.2,0.3-0.5,0.5-0.9,0.7s-0.7,0.4-1.1,0.5c-0.4,0.1-0.8,0.2-1.2,0.2l0-0.7
				c0.6,0,1.1-0.2,1.5-0.4c0.4-0.2,0.7-0.6,0.7-1c0.1-0.3,0-0.5-0.1-0.7s-0.3-0.3-0.5-0.3c-0.3,0-0.6,0.2-0.8,0.5
				c-0.3,0.4-0.5,0.9-0.6,1.7c-0.1,0.4-0.1,0.8-0.1,1.2c0,0.4,0.1,0.7,0.2,0.9c0.2,0.2,0.4,0.4,0.8,0.4c0.3,0,0.5-0.1,0.7-0.2
				c0.2-0.1,0.5-0.3,0.7-0.5c0.1,0.1,0.1,0.2,0.2,0.3c0,0.1,0.1,0.2,0.1,0.4c-0.3,0.4-0.7,0.6-1.1,0.9S48.1,20,47.5,20z"/>
		</g>
	</g>
</g>
</svg>
