<?xml version="1.0" encoding="utf-8"?>
<!-- Generator: Adobe Illustrator 22.0.1, SVG Export Plug-In . SVG Version: 6.00 Build 0)  -->
<svg version="1.1" id="Capa_1" xmlns="http://www.w3.org/2000/svg" xmlns:xlink="http://www.w3.org/1999/xlink" x="0px" y="0px"
	 viewBox="0 0 192.3 15.6" style="enable-background:new 0 0 192.3 15.6;" xml:space="preserve">
<style type="text/css">
	.st0{fill:#2986E2;}
	.st1{fill:none;stroke:#2986E2;stroke-width:4;stroke-miterlimit:10;}
</style>
<g>
	<g>
		<g>
			<path class="st0" d="M0.4,12.4c0.7,0.7,1.7,1,2.6,1.2c2.8,0.8,5.7,1.1,8.5,0.3c1.3-0.4,2.5-0.9,3.3-2.1c0.3-0.4,0.5-0.3,0.8-0.1
				c1.5,1.2,3.1,2.1,4.9,2.7c5.3,1.8,10.4,1.5,15-1.8c0.3-0.2,0.6-0.2,0.9-0.1c2.1,1.2,4.4,1.8,6.9,1.9c1.5,0.1,3-0.1,4.4-1
				c0.2-0.1,0.4-0.3,0.6-0.5c0.2-0.2,0.5-0.4,0.4-0.7c-0.1-0.3-0.5,0-0.7,0c-1.5,0.1-2.9-0.3-4.3-1.1c-1.9-1-3.4-2.5-4.9-4
				c-1.4-1.4-2.7-2.9-4.2-4.2c-1.7-1.3-3.6-2.3-5.8-2.6c-1.2-0.1-2.3,0.1-3.3,0.8c-0.3,0.2-0.7,0.5-0.6,1c0.2,0.4,0.6,0.4,1,0.4
				c2-0.1,3.2,1.1,4.1,2.6c0.9,1.6,0.2,3.4-1.6,4.3c-2.6,1.4-5.1,0.9-7.4-0.7c-2-1.4-3.6-3.2-5.4-4.8c-1.2-1.1-2.5-2.1-4-2.8
				c-2.2-1-4.3-0.7-6.4,0.5C4.7,2,4.4,2.4,4.6,2.9c0.2,0.5,0.7,0.6,1.2,0.5c0.2,0,0.5,0,0.7,0c2.5-0.2,4,1.6,3,4.4
				c-1.3,3.5-4.9,5.1-8.1,4.8C1,12.5,0.7,12.5,0.4,12.4z M4.7,12.7c2-0.6,3.7-1.7,4.8-3.5c0.8-1.3,1.4-2.7,0.9-4.2
				c-0.2-0.7-0.7-1.3-1.3-1.8c1.5,0.4,2.4,1.9,2.2,3.4C10.9,9.6,7.8,12.6,4.7,12.7z M28.3,2.3c1.5,0.5,2.7,1.5,3.4,3
				c0.5,1.2,0.4,2.3-0.4,3.4c-1.3,1.6-3.1,2.1-5.1,2.3c0.9-0.1,1.7-0.4,2.5-0.8c2.5-1.2,3.2-3.7,1.5-6C29.7,3.4,29,2.8,28.3,2.3z"/>
		</g>
		<line class="st1" x1="43.4" y1="12.6" x2="192.4" y2="12.6"/>
		<path class="st0" d="M56.4,10.6c0,0-11.3-0.1-15.1-1s-0.9,3-0.9,3h16V10.6z"/>
	</g>
</g>
</svg>
