<?xml version="1.0" encoding="utf-8"?>
<!-- Generator: Adobe Illustrator 22.0.1, SVG Export Plug-In . SVG Version: 6.00 Build 0)  -->
<svg version="1.1" id="Capa_1" xmlns="http://www.w3.org/2000/svg" xmlns:xlink="http://www.w3.org/1999/xlink" x="0px" y="0px"
	 viewBox="0 0 192.3 15.8" style="enable-background:new 0 0 192.3 15.8;" xml:space="preserve">
<style type="text/css">
	.st0{fill:#2986E2;}
	.st1{fill:none;stroke:#2986E2;stroke-width:4;stroke-miterlimit:10;}
</style>
<g>
	<g>
		<g>
			<path class="st0" d="M192,12.3c-0.7,0.7-1.7,1-2.6,1.2c-2.8,0.8-5.7,1.1-8.5,0.3c-1.3-0.4-2.5-0.9-3.3-2.1
				c-0.3-0.4-0.5-0.3-0.8-0.1c-1.5,1.2-3.1,2.1-4.9,2.7c-5.3,1.8-10.4,1.5-15-1.8c-0.3-0.2-0.6-0.2-0.9-0.1
				c-2.1,1.2-4.4,1.8-6.9,1.9c-1.5,0.1-3-0.1-4.4-1c-0.2-0.1-0.4-0.3-0.6-0.5c-0.2-0.2-0.5-0.4-0.4-0.7c0.1-0.3,0.5,0,0.7,0
				c1.5,0.1,2.9-0.3,4.3-1.1c1.9-1,3.4-2.5,4.9-4c1.4-1.4,2.7-2.9,4.2-4.2c1.7-1.3,3.6-2.3,5.8-2.6c1.2-0.1,2.3,0.1,3.3,0.8
				c0.3,0.2,0.7,0.5,0.6,1c-0.2,0.4-0.6,0.4-1,0.4c-2-0.1-3.2,1.1-4.1,2.6c-0.9,1.6-0.2,3.4,1.6,4.3c2.6,1.4,5.1,0.9,7.4-0.7
				c2-1.4,3.6-3.2,5.4-4.8c1.2-1.1,2.5-2.1,4-2.8c2.2-1,4.3-0.7,6.4,0.5c0.4,0.3,0.8,0.6,0.6,1.2c-0.2,0.5-0.7,0.6-1.2,0.5
				c-0.2,0-0.5,0-0.7,0c-2.5-0.2-4,1.6-3,4.4c1.3,3.5,4.9,5.1,8.1,4.8C191.4,12.4,191.7,12.3,192,12.3z M187.7,12.6
				c-2-0.6-3.7-1.7-4.8-3.5c-0.8-1.3-1.4-2.7-0.9-4.2c0.2-0.7,0.7-1.3,1.3-1.8c-1.5,0.4-2.4,1.9-2.2,3.4
				C181.5,9.5,184.6,12.4,187.7,12.6z M164.2,2.2c-1.5,0.5-2.7,1.5-3.4,3c-0.5,1.2-0.4,2.3,0.4,3.4c1.3,1.6,3.1,2.1,5.1,2.3
				c-0.9-0.1-1.7-0.4-2.5-0.8c-2.5-1.2-3.2-3.7-1.5-6C162.7,3.3,163.4,2.7,164.2,2.2z"/>
		</g>
		<line class="st1" x1="149" y1="12.5" x2="0" y2="12.5"/>
		<path class="st0" d="M136,10.5c0,0,11.3-0.1,15.1-1s0.9,3,0.9,3h-16V10.5z"/>
	</g>
</g>
</svg>
