<?xml version="1.0" encoding="utf-8"?>
<!-- Generator: Adobe Illustrator 22.0.1, SVG Export Plug-In . SVG Version: 6.00 Build 0)  -->
<svg version="1.1" id="Capa_1" xmlns="http://www.w3.org/2000/svg" xmlns:xlink="http://www.w3.org/1999/xlink" x="0px" y="0px"
	 viewBox="0 0 49.1 42.5" style="enable-background:new 0 0 49.1 42.5;" xml:space="preserve">
<style type="text/css">
	.st0{fill:#13203D;}
</style>
<path class="st0" d="M0.5,7.1c0.6-0.8,1.1-1.5,1.7-2.3c4.3,5.7,8.6,11.4,12.9,17.1c0.6-0.7,1.2-1.4,1.9-2.1C12.8,14.1,8.4,8.3,4,2.5
	C4.5,1.7,5,1,5.6,0.3c0.1-0.1,0.2-0.1,0.3-0.2c0.1,0,0.3,0,0.4,0c12.3,0,24.6,0,36.9,0c0.4,0,0.7,0.1,0.9,0.5
	c0.4,0.6,0.9,1.2,1.4,1.8c-4.4,5.8-8.8,11.6-13.1,17.3c0.6,0.7,1.3,1.4,1.9,2.1c4.3-5.7,8.6-11.4,12.9-17.1C47.8,5.5,48.4,6.3,49,7
	c-0.5,0.7-1,1.4-1.5,2c-3.3,4.4-6.7,8.9-10.1,13.3c-0.4,0.6-0.8,1.1-1.3,1.7c-0.2,0.2-0.2,0.4-0.1,0.7c3.2,7.2-0.9,15.4-8.5,17.2
	c-7.4,1.8-14.7-3.5-15.3-11.1c-0.2-2.2,0.2-4.2,1.1-6.2c0.1-0.3,0.1-0.4-0.1-0.7c-3.3-4.4-6.6-8.8-9.9-13.2C2.4,9.6,1.5,8.3,0.5,7.1
	z M36.4,10c-7.8,0-15.5,0-23.3,0c0.1,0.1,0.1,0.2,0.1,0.2c2,2.7,4,5.3,6,8c0.2,0.3,0.4,0.3,0.7,0.2c2.5-1,5.1-1.3,7.7-0.6
	c0.8,0.2,1.6,0.5,2.4,0.7C32.1,15.6,34.2,12.8,36.4,10z M8.2,3.4C9,4.5,9.7,5.5,10.5,6.5c0.1,0.1,0.3,0.1,0.4,0.1
	c9.2,0,18.4,0,27.6,0c0.2,0,0.4-0.1,0.5-0.3c0.7-0.9,1.4-1.8,2-2.7c0.1-0.1,0.1-0.2,0.1-0.3C30.2,3.4,19.2,3.4,8.2,3.4z M23.2,26.4
	c0,3.9,0,7.7,0,11.5c1.1,0,2.1,0,3.2,0c0-5.1,0-10.1,0-15.2c-1.1,0.1-2.3-0.2-3.3,0.5c-0.9,0.6-1.8,1-2.8,1.5
	c0.2,0.9,0.4,1.7,0.7,2.6c0,0.1,0.1,0.1,0.1,0.3C21.7,27.2,22.4,26.8,23.2,26.4z M13.6,29.9c1.1-6.1,4.7-9.8,10.8-11
	C19.1,18.4,13.1,23.6,13.6,29.9z M25,41.1c6.9,0.3,11.6-5.9,11.1-10.9C35,36.3,31.3,39.9,25,41.1z"/>
</svg>
