<?xml version="1.0" encoding="utf-8"?>
<!-- Generator: Adobe Illustrator 22.0.1, SVG Export Plug-In . SVG Version: 6.00 Build 0)  -->
<svg version="1.1" id="Capa_1" xmlns="http://www.w3.org/2000/svg" xmlns:xlink="http://www.w3.org/1999/xlink" x="0px" y="0px"
	 viewBox="0 0 43.8 52.8" style="enable-background:new 0 0 43.8 52.8;" xml:space="preserve">
<style type="text/css">
	.st0{fill:#13203D;}
</style>
<path class="st0" d="M7.5,43.7c0,0.3,0.1,0.7,0.1,1c0,1.3-0.4,2.5-1.3,3.5c-1.6,1.9-3.7,3.1-6.1,3.8c0,0-0.1,0-0.2,0
	c0-0.3,0-0.6,0-0.9c0-1.4,0-2.7,0-4.1c0-5.2,0-10.5,0-15.7c0-1.8,0-3.5,0-5.3c0-0.1,0.1-0.3,0.1-0.3c1.4-1.1,3.1-1.8,4.9-1.7
	c1.8,0.1,3.3,0.9,4.5,2.3c0.4,0.5,0.7,1,1,1.6c0.2-0.1,0.4-0.2,0.6-0.3c1.6-0.9,3.3-1.6,5.1-2c1.9-0.3,3.6,0,5.1,1.2
	c0.7,0.6,1.2,1.3,1.6,2c0.6,0.9,1.1,1.9,1.9,2.7c0.6,0.6,1.3,1,2.1,1.3c0,0,0.1,0,0.1,0c-0.3-0.4-0.6-0.8-0.9-1.2
	c-0.9-1.4-1.4-2.9-1.3-4.5c0.1-0.9,0.2-1.8,0.4-2.7c0.2-1.4,0.5-2.8,0.5-4.2c0-0.5,0-1.1-0.1-1.6c-0.2-1.7-0.7-3.3-1.4-4.9
	c-0.3-0.8-0.7-1.5-1.1-2.2c-0.2-0.4-0.3-0.4-0.6-0.1c-0.4,0.3-0.8,0.7-1.2,1c-0.5,0.5-1.1,0.6-1.8,0.5c-0.4-0.1-0.9-0.2-1.3-0.2
	c-0.2,0-0.4,0-0.7,0c-0.7,0.2-1.5,0.3-2.2,0.3c-0.1,0-0.2,0.1-0.2,0.1c-0.2,0.2-0.4,0.5-0.6,0.7c-0.3,0.4-0.7,0.5-1.2,0.5
	c-0.6-0.1-1.1-0.3-1.5-0.6c-0.5-0.3-0.6-0.9-0.7-1.4c0-0.3,0-0.5,0-0.8c0-0.4,0.2-0.7,0.5-0.8c0.3-0.1,0.6-0.3,1-0.4
	c-0.2-0.2-0.3-0.3-0.5-0.4c-0.4-0.4-0.5-0.8-0.4-1.3C12,7.5,12,6.7,12.2,5.9c0.1-0.7,0.3-1.4,0.4-2.1c0.1-0.4,0.4-0.5,0.7-0.6
	c0.2,0,0.4-0.1,0.6-0.1c0.2,0,0.2-0.1,0.3-0.2c0-0.2,0.1-0.5,0.2-0.7c0.1-0.4,0.4-0.6,0.8-0.6c0.2,0,0.4,0,0.6,0.1
	c0.2,0,0.4,0.1,0.6,0.2c0,0,0,0,0,0c0.2-0.6,0.3-0.8,1.2-0.6c0.6,0.1,1.1,0.4,1.7,0.7c0.5-0.5,1.1-0.4,1.7-0.3
	C21.7,1.7,22.3,1.8,23,2c0.9,0.3,1.4,0.9,2,1.5c0.3,0.4,0.6,0.7,1,1.1c0.5,0.6,1.2,1,1.9,1.4c0.2,0.1,0.4,0.2,0.6,0.4
	c0.5,0.3,0.6,0.8,0.5,1.4c-0.1,0.5,0,0.8,0.3,1.2c0.8,1,1.6,2.1,2.4,3.1c0.9,1.1,1.8,2.2,2.6,3.3c-1.2-1-2.5-2-3.9-2.8
	c0.2,0.2,0.4,0.3,0.6,0.5c2.3,2.1,4.3,4.3,6.1,6.8c1.2,1.7,2.3,3.4,3.1,5.2c0.3,0.6,0.4,1.2,0.5,1.8c0.2,1,0.3,2,0.5,3
	c0.2,1.6,0.7,3.1,1.5,4.5c0.6,1.1,0.5,2.1-0.1,3.1c-0.7,1-1.4,2-2.3,2.8c-0.4,0.3-0.8,0.6-1.2,0.8c-3.4,1.7-7,3-10.5,4.3
	c-0.8,0.3-1.6,0.6-2.4,0.8c-1.6,0.5-3.2,1-4.8,1.4c-1.2,0.3-2.5,0.3-3.7,0.1c-2-0.3-3.9-0.8-5.7-1.6C10.4,45.6,8.9,44.8,7.5,43.7
	C7.6,43.7,7.5,43.7,7.5,43.7z M26.4,36.9C26.4,36.9,26.4,36.9,26.4,36.9c-1.4,0.9-2.8,1.6-4.3,2.1c-2.3,0.8-4.8,1.3-7.2,1.5
	c-0.9,0.1-1.9,0.1-2.8-0.2c-1.6-0.4-3-1.3-4.1-2.5c-0.5-0.5-1-1.1-1.7-1.5c-0.1,0-0.1-0.1-0.1-0.2c0-0.2,0-0.5,0-0.7
	C6,34,5.1,33,3.9,32.2c-0.2-0.1-0.4-0.2-0.6-0.3c0.3,0.3,0.7,0.6,1,0.9c1.5,1.3,1.8,2.9,1.2,4.7c-0.3,1.1-1.1,1.8-1.9,2.5
	c-0.7,0.5-1.4,1-2,1.7c-0.2,0.2-0.3,0.4-0.5,0.6c0.2-0.1,0.3-0.2,0.4-0.3c0.7-0.6,1.4-1.1,2.2-1.6c1.1-0.7,1.9-1.6,2.3-2.9
	c0.1-0.2,0.1-0.4,0.2-0.6c0.5,0.6,1,1.1,1.4,1.6C9.1,40,10.8,40.9,13,41c1.6,0,3.2-0.2,4.8-0.5c2.2-0.5,4.4-1.1,6.5-2.2
	C25,37.9,25.8,37.5,26.4,36.9z M30.4,34C30.4,34,30.4,34,30.4,34c0.2,0.1,0.3,0.1,0.5,0.1c1.2,0.1,2.1-0.4,2.5-1.5
	c0.2-0.5,0.3-1,0.3-1.6c0.1-1.5-0.2-3-0.8-4.4c-0.6-1.7-1.4-3.2-2.4-4.7c-0.1-0.1-0.1-0.2-0.2-0.3c0.3,0.7,0.7,1.3,1,2
	c1,1.9,1.7,3.9,1.9,6.1c0.1,1,0,1.9-0.4,2.8c-0.4,0.9-1.1,1.4-2.1,1.4C30.7,34,30.5,34,30.4,34z M16.5,11.7c-0.1,0-0.1-0.1-0.2-0.1
	c-0.7-0.4-1.4-0.8-2-1.5c-0.2-0.2-0.3-0.5-0.3-0.7c0-1.1,0.1-2.2,0.1-3.3c0-0.4,0.1-0.9,0.1-1.3c-0.2,0.6-0.3,1.1-0.4,1.7
	c-0.2,1-0.3,2.1-0.3,3.1c0,0.2,0,0.4,0.2,0.5C14.5,11,15.4,11.5,16.5,11.7z M19.2,11.4C19.2,11.4,19.2,11.4,19.2,11.4
	C19.2,11.4,19.2,11.4,19.2,11.4c-0.9-0.4-1.5-1-2.1-1.6C17,9.8,17,9.7,17,9.6c-0.1-1-0.3-2.1-0.4-3.1c-0.1-0.4-0.2-0.8-0.3-1.2
	c0,0.1,0,0.1,0,0.2c0.1,1.4,0.2,2.8,0.2,4.1c0,0.4,0.2,0.6,0.4,0.9c0.6,0.4,1.2,0.7,1.9,1C18.9,11.4,19.1,11.4,19.2,11.4z M18.5,4.7
	C18.4,4.7,18.4,4.7,18.5,4.7c0,0.2,0,0.3,0,0.5c0.2,1.1,0.3,2.2,0.5,3.3c0,0.3,0.1,0.6,0.4,0.8c0.4,0.3,0.8,0.5,1.2,0.7
	c0.4,0.2,0.6,0.2,0.7,0.1c-0.5-0.4-1-0.7-1.4-1.1c-0.1-0.1-0.3-0.3-0.3-0.5c-0.2-0.8-0.4-1.6-0.6-2.4C18.8,5.6,18.6,5.2,18.5,4.7z
	 M13.2,10.6c-0.3,0.4-0.3,0.8-0.2,1.2c0.1,0.6,0.5,1,1.1,1.2C13.3,12.3,12.9,11.6,13.2,10.6z"/>
</svg>
