<?xml version="1.0" encoding="utf-8"?>
<!-- Generator: Adobe Illustrator 22.0.1, SVG Export Plug-In . SVG Version: 6.00 Build 0)  -->
<svg version="1.1" id="Capa_1" xmlns="http://www.w3.org/2000/svg" xmlns:xlink="http://www.w3.org/1999/xlink" x="0px" y="0px"
	 viewBox="0 0 350 178" style="enable-background:new 0 0 350 178;" xml:space="preserve">
<style type="text/css">
	.st0{clip-path:url(#SVGID_2_);fill:url(#SVGID_3_);}
	.st1{clip-path:url(#SVGID_2_);fill:#8A5900;}
	.st2{fill:#EFC302;}
	.st3{fill:#E37E00;}
	.st4{fill:#EFC300;}
	.st5{fill:#ECB400;}
	.st6{fill:url(#SVGID_4_);}
	.st7{fill:#8A5900;}
	.st8{fill:url(#SVGID_5_);}
	.st9{fill:url(#SVGID_6_);}
	.st10{fill:#F2F2F2;}
</style>
<g>
	<defs>
		<path id="SVGID_1_" d="M0,0c0,29.3,0,58.7,0,88c58.3,13,116.7,26,175,39c58.3-13,116.7-26,175-39c0-29.3,0-58.7,0-88H0z"/>
	</defs>
	<clipPath id="SVGID_2_">
		<use xlink:href="#SVGID_1_"  style="overflow:visible;"/>
	</clipPath>
	<linearGradient id="SVGID_3_" gradientUnits="userSpaceOnUse" x1="175" y1="127" x2="175" y2="0">
		<stop  offset="1.794872e-02" style="stop-color:#AA4600"/>
		<stop  offset="0.4026" style="stop-color:#F77B1E"/>
		<stop  offset="1" style="stop-color:#F7931E"/>
	</linearGradient>
	<path class="st0" d="M0,0c0,29.3,0,58.7,0,88c58.3,13,116.7,26,175,39c58.3-13,116.7-26,175-39c0-29.3,0-58.7,0-88H0z"/>
	<rect x="9" class="st1" width="12" height="112"/>
	<rect x="163" class="st1" width="12" height="137"/>
	<rect x="284" class="st1" width="6" height="137"/>
	<rect x="205" class="st1" width="18" height="135"/>
	<rect x="41.5" y="0.5" class="st1" width="3" height="112"/>
	<rect x="47.5" y="0.5" class="st1" width="1.5" height="112"/>
	<rect x="124.5" y="-0.5" class="st1" width="3" height="127.5"/>
	<rect x="130.5" y="-0.5" class="st1" width="1.5" height="127.5"/>
	<rect x="245.5" y="-0.5" class="st1" width="3" height="127.5"/>
	<rect x="251.5" y="-0.5" class="st1" width="1.5" height="127.5"/>
	<rect x="80.5" class="st1" width="25.5" height="122.5"/>
	<rect x="321.5" class="st1" width="25.5" height="122.5"/>
</g>
<g>
	<path class="st2" d="M186.5,102.8c0.2-0.1,0.3-0.1,0.5-0.2c0.4-0.3,0.6-0.2,0.8,0.2c0.3,0.7,0.6,1.5,1,2.2c0,0.1,0.1,0.1,0.1,0.2
		c0.2,0.4,0.3,0.8,0.5,1.2c0.1,0.3,0.2,0.3,0.5,0.2c0.4-0.2,0.9-0.3,1.4-0.5c0.7-0.2,1.4-0.4,2.1-0.7c0.2,0,0.4-0.1,0.6-0.2
		c0,0,0.1,0,0.1,0c0.2,0.7,0.3,1.5,0.5,2.2c0.1,0.8,0.3,1.5,0.5,2.2c0,0.2,0.2,0.2,0.3,0.2c0.8-0.1,1.6-0.2,2.5-0.3
		c0.5,0,1.1-0.1,1.6-0.1c0.2,0,0.4,0,0.4,0.2c0,1.3,0,2.6,0,4c0,0.5,0.2,0.6,0.6,0.6c1.4,0.1,2.8,0.3,4.2,0.4c0,0.1,0,0.2,0,0.3
		c0,0,0,0.1,0,0.1c0,0.1,0,0.2-0.1,0.3c-0.3,1.1-0.5,2.2-0.7,3.3c-0.3,0.5-0.1,0.8,0.4,0.9c0.1,0,0.2,0.1,0.4,0.1
		c0.7,0.3,1.5,0.5,2.2,0.7c0.4,0.3,0.9,0.2,1.3,0.6c-0.3,0.7-0.6,1.5-1,2.2c-0.1,0.2-0.3,0.4-0.3,0.7c-0.3,0.3-0.3,0.7-0.5,1
		c-0.1,0.2,0,0.4,0.2,0.5c0.9,0.5,1.7,1,2.6,1.4c0.4,0.3,0.9,0.4,1.2,0.8c-0.4,0.6-0.9,1.1-1.2,1.7c-0.4,0.6-0.9,1.2-1.3,1.8
		c-0.2,0.2-0.1,0.4,0.1,0.5c0.4,0.4,0.8,0.7,1.3,1.1c0.6,0.6,1.2,1.1,1.8,1.6c0.2,0.2,0.1,0.3-0.1,0.5c-0.6,0.5-1.1,1.1-1.7,1.6
		c-0.4,0.4-0.9,0.7-1.3,1.1c-0.2,0.2-0.2,0.3,0,0.5c0.8,1.1,1.6,2.1,2.3,3.2c0.2,0.3,0.2,0.5-0.2,0.7c-0.3,0.1-0.5,0.3-0.8,0.5
		c-0.5,0.2-1.1,0.5-1.5,0.9c-0.3,0.1-0.5,0.2-0.7,0.4c-0.7,0.3-0.7,0.3-0.4,1c0.1,0.2,0.2,0.5,0.3,0.7c0,0.1,0.1,0.1,0.1,0.2
		c0.3,0.8,0.6,1.5,1,2.2c0.3,0.5,0.1,0.7-0.4,0.8c-0.2,0-0.4,0.2-0.7,0.2c-1,0.3-2,0.6-2.9,0.9c-0.2,0.1-0.3,0.2-0.2,0.4
		c0.3,1.2,0.5,2.5,0.8,3.7c0,0.2,0.1,0.4,0.1,0.7c-0.7,0.1-1.5,0.2-2.2,0.3c-0.7,0.1-1.4,0.1-2.1,0.2c-0.4-0.1-0.3,0.2-0.3,0.4
		c0,1.3,0,2.5,0,3.8c0,0.2,0.1,0.5-0.2,0.6c-1.4-0.2-2.7-0.3-4.1-0.5c-0.4,0-0.5,0.1-0.5,0.4c-0.2,1.2-0.5,2.4-0.7,3.7
		c-0.1,0.4-0.2,0.5-0.6,0.4c-1.2-0.4-2.3-0.8-3.5-1.2c-0.4-0.1-0.6-0.1-0.8,0.3c-0.5,1.2-1,2.3-1.5,3.4c-0.2,0.4-0.3,0.4-0.6,0.2
		c-1.1-0.6-2.2-1.2-3.2-1.9c-0.4-0.3-0.6-0.2-0.8,0.2c-0.7,1-1.4,2-2.1,3c-0.2,0.3-0.4,0.3-0.7,0.1c-0.9-0.9-1.9-1.7-2.8-2.6
		c-0.3-0.2-0.4-0.3-0.7,0c-0.9,0.8-1.8,1.6-2.7,2.5c-0.4,0.3-0.6,0.4-0.8-0.1c-0.2-0.4-0.6-0.7-0.8-1.1c-0.4-0.6-0.9-1.2-1.3-1.9
		c-0.2-0.4-0.4-0.3-0.8-0.1c-1.1,0.6-2.1,1.2-3.2,1.9c-0.4,0.2-0.5,0.2-0.7-0.2c-0.5-1.1-1-2.2-1.5-3.3c-0.2-0.4-0.4-0.5-0.8-0.4
		c-1.2,0.4-2.3,0.8-3.5,1.2c-0.4,0.2-0.5,0-0.6-0.4c-0.2-1.2-0.5-2.5-0.8-3.7c0-0.2-0.1-0.4-0.4-0.4c-1.4,0.2-2.8,0.3-4.3,0.5
		c-0.3-0.2-0.1-0.5-0.2-0.8c0-0.7,0-1.5,0-2.2c0-0.1,0-0.3,0-0.4c0-1.4,0-1.4-1.5-1.4c-0.7-0.1-1.5-0.2-2.2-0.2
		c-0.3-0.1-0.7-0.1-1-0.1c0.1-0.7,0.3-1.4,0.4-2.1c0.2-0.8,0.4-1.6,0.5-2.4c0.1-0.2-0.1-0.3-0.2-0.3c-0.6-0.2-1.3-0.4-1.9-0.6
		c-0.8-0.3-1.5-0.5-2.3-0.8c0-0.2,0.1-0.4,0.2-0.6c0.3-0.8,0.7-1.5,1-2.3c0.2-0.4,0.4-0.8,0.6-1.2c0.1-0.2,0-0.4-0.2-0.5
		c-1.3-0.7-2.5-1.4-3.8-2.1c0-0.1,0-0.1,0-0.2c0.7-0.9,1.4-1.7,1.9-2.7c0.9-1,0.9-1,0-1.8c-0.2-0.1-0.3-0.3-0.5-0.4
		c-0.4-0.5-0.9-0.9-1.4-1.2c-0.2-0.2-0.3-0.4-0.5-0.5c-0.2-0.2-0.1-0.3,0-0.5c0.2-0.1,0.4-0.3,0.6-0.5c0.7-0.5,1.3-1.1,1.9-1.7
		c0.1-0.1,0.2-0.2,0.3-0.3c0.6-0.4,0.6-0.4,0-1.1c-0.1-0.3-0.3-0.5-0.6-0.8c0,0-0.1-0.1-0.1-0.1c0,0,0,0,0,0c-0.5-0.8-1-1.5-1.6-2.2
		c0,0,0-0.1,0-0.1c0.7-0.4,1.5-0.9,2.2-1.3c0.5-0.2,1-0.5,1.4-0.8c0.4-0.1,0.4-0.3,0.3-0.6c-0.3-0.5-0.5-1.1-0.8-1.6
		c-0.3-0.7-0.5-1.4-0.9-2c0-0.1-0.1-0.2-0.1-0.3c0-0.1,0-0.1,0.1-0.2c0.8-0.2,1.5-0.4,2.2-0.7c0.5-0.2,1.1-0.3,1.6-0.5
		c0.6-0.1,0.7-0.4,0.4-0.9c-0.1-0.8-0.3-1.5-0.5-2.2c-0.1-0.4-0.1-0.9-0.3-1.3c-0.1-0.4,0-0.5,0.4-0.5c1-0.1,2.1-0.2,3.1-0.3
		c0.1,0,0.3,0,0.4,0c0.7-0.1,0.8-0.1,0.7-0.9c0-0.5,0-1,0-1.4c0-0.7,0-1.5,0-2.2c0-0.1,0-0.1,0-0.2c0.1,0,0.1-0.1,0.2-0.1
		c0.2,0.1,0.4,0.1,0.6,0.1c0.7,0.1,1.5,0.2,2.2,0.2c0.5,0.1,0.9,0.1,1.4,0.2c0.2,0,0.4,0,0.4-0.3c0.1-0.7,0.3-1.4,0.4-2.1
		c0.1-0.6,0.3-1.1,0.4-1.7c0.1-0.4,0.2-0.5,0.6-0.3c1.2,0.4,2.3,0.7,3.5,1.1c0.4,0.2,0.6,0.2,0.8-0.3c0.1-0.3,0.3-0.7,0.4-1
		c0.4-0.7,0.7-1.5,1-2.2c0.1,0,0.1-0.1,0.1-0.2c0.2-0.4,0.4-0.3,0.7-0.2c1.1,0.7,2.2,1.3,3.3,1.9c0.2,0.1,0.3,0.3,0.5,0
		c0.4-0.5,0.8-1,1.1-1.5c0.4-0.5,0.8-1,1.1-1.6c0.3-0.5,0.6-0.5,1,0c0.4,0.4,0.8,0.7,1.2,1.1c0.2,0.2,0.3,0.4,0.6,0.5c0,0,0,0,0,0.1
		c1.1,1.1,1.1,1.1,2.2,0.1c0.6-0.5,1.1-1.1,1.7-1.6c0,0,0,0,0.1,0c0.8-0.6,0.8-0.6,1.4,0.2c0.3,0.4,0.5,0.7,0.8,1
		c0,0.1,0.1,0.1,0.1,0.2c0.2,0.3,0.5,0.7,0.7,1c0.5,0.8,0.6,0.8,1.3,0.3c0,0,0-0.1,0.1-0.1c0.7-0.4,1.4-0.8,2.1-1.2
		C186.5,102.9,186.5,102.9,186.5,102.8z M149.3,134.5c-0.1,15.4,12.4,27.7,27.5,27.8c15.6,0.1,28-12.5,28.1-27.6
		c0.1-15.7-12.5-28.1-27.8-28.1C161.7,106.7,149.3,119.1,149.3,134.5z"/>
	<path class="st3" d="M149.3,134.5c0-15.4,12.4-27.8,27.8-27.8c15.3,0,27.9,12.4,27.8,28.1c-0.1,15.1-12.4,27.7-28.1,27.6
		C161.7,162.2,149.2,149.9,149.3,134.5z M160.4,150.8c0.2,0.5,0.7,0.8,1.1,1.1c1.4,1.4,3,2.4,4.7,3.3c4,2.1,8.2,3,12.6,2.6
		c2.5-0.2,4.9-0.7,7.2-1.7c2.8-1.1,5.3-2.8,7.5-4.9c1.6-1.5,2.9-3.3,4-5.2c1.8-3.2,2.8-6.6,3.1-10.2c0.1-1.5,0-3.1-0.2-4.6
		c-0.3-2.5-1-4.8-2.1-7.1c-0.9-1.8-1.9-3.5-3.3-5c-0.5-0.5-0.9-1.2-1.6-1.6c-1.8-2-4.1-3.5-6.6-4.6c-3.5-1.6-7.1-2.3-10.9-2.1
		c-2.2,0.1-4.3,0.5-6.4,1.2c-2.5,0.9-4.9,2.2-7,3.9c-1.6,1.3-3,2.7-4.2,4.3c-0.7,1-1.3,2-1.9,3c-1,1.8-1.7,3.7-2.1,5.6
		c-0.6,2.5-0.7,5-0.5,7.6c0.2,1.8,0.5,3.6,1.1,5.3c0.9,2.8,2.4,5.2,4.2,7.5C159.4,150,159.8,150.5,160.4,150.8z"/>
	<path class="st4" d="M186.4,124.8c0.9-0.9,1.8-1.8,2.7-2.7c1.4-1.4,2.8-2.8,4.2-4.2c0.1-0.1,0.1-0.1,0.2-0.2c0.7,0.4,1.1,1,1.6,1.6
		c1.3,1.5,2.4,3.2,3.3,5c1.1,2.2,1.8,4.6,2.1,7.1c0.2,1.5,0.3,3.1,0.2,4.6c-0.2,3.6-1.2,7-3.1,10.2c-1.1,1.9-2.4,3.7-4,5.2
		c-2.2,2.1-4.6,3.7-7.5,4.9c-2.3,0.9-4.7,1.5-7.2,1.7c-4.5,0.3-8.7-0.6-12.6-2.6c-1.7-0.9-3.3-2-4.7-3.3c-0.4-0.4-0.9-0.6-1.1-1.1
		c0.8-0.8,1.5-1.5,2.3-2.3c0.7-0.7,1.4-1.4,2.1-2.1C165.6,145.5,185.1,126.1,186.4,124.8z"/>
	<path class="st5" d="M167.5,143.8c-0.9,0.9-1.8,1.8-2.7,2.7c-1.4,1.4-2.8,2.8-4.2,4.2c-0.1,0.1-0.1,0.1-0.2,0.2
		c-0.7-0.4-1.1-1-1.6-1.6c-1.3-1.5-2.4-3.2-3.3-5c-1.1-2.2-1.8-4.6-2.1-7.1c-0.2-1.5-0.3-3.1-0.2-4.6c0.2-3.6,1.2-7,3.1-10.2
		c1.1-1.9,2.4-3.7,4-5.2c2.2-2.1,4.6-3.7,7.5-4.9c2.3-0.9,4.7-1.5,7.2-1.7c4.5-0.3,8.7,0.6,12.6,2.6c1.7,0.9,3.3,2,4.7,3.3
		c0.4,0.4,0.9,0.6,1.1,1.1c-0.8,0.8-1.5,1.5-2.3,2.3c-0.7,0.7-1.4,1.4-2.1,2.1C188.3,123.1,168.8,142.5,167.5,143.8z"/>
	<g>
		<path class="st3" d="M168.8,130c0.3,0.3,0.4,0.5,0.7,0.8c-0.6,0.3-1.3,0.6-1.9,0.9c0,0.1,0.1,0.2,0.1,0.2c0.8,0.7,0.8,0.7,0,1.6
			c-0.4,0.4-0.6,0.9-1,1.4c0.1,0.1,0.1,0.1,0.2,0.2c0.4,0,0.9,0,1.5,0c-1.3,1.2-1.9,2.5-1.3,4.2c-0.1,0-0.1,0-0.2,0
			c-0.2-0.2-0.4-0.3-0.5-0.5c-1.1-1.9-1.9-3.9-1.8-6.1c0.1-3.2,2.6-5.6,5.8-5.8c1.1-0.1,2.1-0.2,3.2-0.3c0.6,0,1.2,0,1.9,0
			c-0.2,0.7-0.6,1.1-1.2,1.4c-0.6,0.3-1.3,0.5-1.9,0.7C171.2,129.1,170,129.5,168.8,130z"/>
		<path class="st3" d="M174.5,121.9c0.3-0.1,0.4-0.1,0.7-0.2c-0.3-1.6-1.5-3-1.2-4.8c0.3,0.4,0.5,0.7,0.8,1c0.1,0,0.2,0,0.2,0
			c-0.2-2.7,1.5-4.6,2.8-6.8c0.4,1.8,0.8,3.4,1.2,5.1c0,0,0.1,0,0.4-0.1c-0.2,1.4-1.5,2.1-2,3.3c0.3,0,0.6,0,0.9,0
			c-0.1,0.4-0.2,0.7-0.3,0.9c-0.3,0.7-0.7,1.3-1,1.9c-0.4,1.2-0.7,2.5-1,3.7C175.5,125,174.9,123.5,174.5,121.9z"/>
		<path class="st3" d="M190.7,134.4c-2.1-0.6-4-1.2-5-3.3c-0.2-0.4-0.4-0.5-0.8-0.4c-0.2,0.1-0.4,0.1-0.6,0.1
			c-0.3,0-0.5-0.1-0.5-0.5c0-0.3,0-0.7,0-1.1c-0.5,0.2-1,0.3-1.6,0.5c0.4-0.8,0-1.1-0.5-1.3c-0.9-0.3-1.9-0.7-2.8-1
			c-0.5-0.2-0.9-0.4-1.3-0.6c0-0.1,0-0.2,0-0.3c0.9-0.2,1.9-0.4,2.8-0.5c2.1-0.3,3.9,0.3,5.5,1.7c1.9,1.7,3.7,3.5,4.6,5.9
			C190.5,133.9,190.6,134.1,190.7,134.4z"/>
		<path class="st3" d="M175.3,128.1c-0.1,1.5,0,3.1-1.3,4.3c0.3,0.2,0.6,0.3,0.9,0.5c0.3,0.3,0.7,0.5,0.8,0.9
			c0.2,0.5-0.4,0.7-0.7,0.9c-0.1,0.1-0.2,0.1-0.4,0.3c0.2,0.2,0.4,0.4,0.6,0.6c0.8,0.8,0.8,0.9-0.2,1.4c1,0.8,2,1.6,3,2.4
			c0,0.1,0,0.2-0.1,0.3c-0.6,0-1.1,0.1-1.7,0.1c0.2,0.6,0.4,1.1,0.5,1.7c0,0.2-0.1,0.5-0.2,0.7c-0.2-0.1-0.5-0.2-0.7-0.4
			c-0.9-1.2-1.7-2.3-2.5-3.5c-0.6-0.8-1-1.7-1-2.7c0-1.4,0.1-2.8,0.3-4.2c0.2-1.4,1.1-2.2,2.2-3c0.1-0.1,0.2-0.1,0.3-0.1
			C175.1,128.1,175.2,128.1,175.3,128.1z"/>
		<path class="st3" d="M182.8,120.6c0.1,0.6,0.3,1.1,0.4,1.5c0.1,1,0,1.1-1,0.8c-0.5-0.2-1.1-0.3-1.8-0.5c0.1,0.3,0.2,0.5,0.2,0.7
			c0.3,0.6,0.1,0.9-0.4,1.2c-1,0.6-2,1.3-2.9,2c-0.1,0.1-0.2,0.1-0.5,0.1c0.3-0.7,0.6-1.3,0.9-2c1.7-3.4,4.4-5.7,8-6.9
			c1-0.3,2-0.7,2.9-1.1c0.2,1.2-0.7,2.6-2.4,3.3c0.1,0.2,0.1,0.3,0.2,0.5c0.3,0.7,0.1,1-0.7,0.9c-0.8-0.1-1.6-0.3-2.3-0.4
			C183.3,120.8,183.1,120.7,182.8,120.6z"/>
		<path class="st3" d="M175.7,126.3c-1.5,0-2.3-1.2-3.4-1.9c-0.1,0.3-0.3,0.5-0.4,0.8c-0.3-0.4-0.6-0.7-1-1.2
			c-0.2,0.5-0.3,1-0.6,1.5c-0.1,0.3-0.4,0.5-0.6,0.7c-0.2-0.2-0.5-0.4-0.6-0.7c-0.2-0.4-0.3-0.9-0.5-1.4c-0.7,0.6-1.3,1.1-2,1.7
			c-0.4-1.8-1.9-1.1-3.1-1.5c1.8-1,3.3-2.3,5.3-2.7c1.7-0.4,3.2,0.2,4.5,1.2C174.4,123.8,175.2,124.9,175.7,126.3z"/>
		<path class="st3" d="M179.9,154.8c-0.8-0.4-1.4-0.7-2-1.1c-0.5-0.3-0.2-0.9-0.1-1.3c0-0.2,0.3-0.4,0.5-0.5c0.6-0.3,1.2-0.5,2-0.7
			C180.2,152.4,180.1,153.5,179.9,154.8z"/>
		<path class="st3" d="M178,151.4c0.2-1.2,0.3-2.3,0.4-3.4c0.6,0.3,1.3,0.6,1.8,1c0.2,0.2,0.2,1.1,0,1.3
			C179.7,151,178.9,151.3,178,151.4z"/>
		<path class="st3" d="M180.3,148.4c-0.5-0.4-1.1-0.8-1.6-1.2c-0.5-0.5-0.2-1.2,0.4-1.4c0.2-0.1,0.5-0.1,0.7-0.2
			c0.2-0.1,0.4-0.2,0.8-0.3c0,1.1-0.1,2.1-0.1,3C180.5,148.3,180.4,148.4,180.3,148.4z"/>
		<path class="st3" d="M180.4,139.4c0.1,1.2,0.2,2.3,0.2,3.4c-0.9-0.2-1.5-0.6-1.8-1.3C178.6,140.8,178.9,140.6,180.4,139.4z"/>
		<path class="st3" d="M178.7,145.3c0-0.9,0.1-1.8,0.1-2.6c0.6,0.2,1.1,0.5,1.6,0.7c0.3,0.2,0.4,1.1,0,1.2
			C179.9,144.9,179.3,145.1,178.7,145.3z"/>
		<path class="st3" d="M177.5,154.3c0.8,0.4,1.5,0.7,2.2,1.1c0,0.1,0,0.1,0,0.2c-0.8,0.2-1.7,0.5-2.7,0.8
			C177.2,155.5,177.3,154.9,177.5,154.3z"/>
		<path class="st3" d="M178.8,139.8c0-0.7,0-1.4-0.1-2.1c0.4-0.1,0.8-0.2,1.2-0.3C180.5,138.4,180.2,139.1,178.8,139.8z"/>
		<path class="st3" d="M179.5,156.3c-0.8,1.1-1.9,1.4-2.9,1.8c0.1-1.3,0.1-1.3,1.2-1.4C178.3,156.6,178.8,156.5,179.5,156.3z"/>
		<path class="st3" d="M178.8,137c-0.4-1.7-0.3-1.7,0.7-2.1C180.1,136.6,180.1,136.9,178.8,137z"/>
		<path class="st3" d="M178.2,130.4c0.2,0.5,0.4,1,0.5,1.5c0.1,0.2-0.1,0.4-0.1,0.7c-0.3-0.1-0.7-0.2-0.8-0.4
			C177.3,131.4,177.4,131.1,178.2,130.4z"/>
		<path class="st3" d="M178.4,134.7c-0.1-0.6-0.3-1.1-0.4-1.6c0.3,0,0.6,0,0.9-0.1C179.6,133.9,179.5,134.3,178.4,134.7z"/>
		<path class="st3" d="M177.3,130.5c-0.2-0.6-0.4-1-0.6-1.5c0.3,0,0.6-0.1,0.9-0.1C178.1,129.5,177.6,129.9,177.3,130.5z"/>
		<path class="st3" d="M176.3,127.7c0.7-0.4,0.8-0.4,1,0.4C176.7,128.5,176.5,128.4,176.3,127.7z"/>
	</g>
</g>
<g>
	<linearGradient id="SVGID_4_" gradientUnits="userSpaceOnUse" x1="143.3704" y1="134.5" x2="210.7967" y2="134.5">
		<stop  offset="0" style="stop-color:#FFB82A"/>
		<stop  offset="0.1667" style="stop-color:#D49400"/>
		<stop  offset="0.2667" style="stop-color:#FF9E15"/>
		<stop  offset="0.3538" style="stop-color:#FFCD7F"/>
		<stop  offset="0.4256" style="stop-color:#FF9E15"/>
		<stop  offset="0.5564" style="stop-color:#D49400"/>
		<stop  offset="0.6615" style="stop-color:#FF9E15"/>
		<stop  offset="0.7333" style="stop-color:#FFCD7F"/>
		<stop  offset="0.7897" style="stop-color:#FF9E15"/>
		<stop  offset="0.8744" style="stop-color:#D49400"/>
		<stop  offset="1" style="stop-color:#FFB82A"/>
	</linearGradient>
	<path class="st6" d="M186.5,102.8c0.2-0.1,0.3-0.1,0.5-0.2c0.4-0.3,0.6-0.2,0.8,0.2c0.3,0.7,0.6,1.5,1,2.2c0,0.1,0.1,0.1,0.1,0.2
		c0.2,0.4,0.3,0.8,0.5,1.2c0.1,0.3,0.2,0.3,0.5,0.2c0.4-0.2,0.9-0.3,1.4-0.5c0.7-0.2,1.4-0.4,2.1-0.7c0.2,0,0.4-0.1,0.6-0.2
		c0,0,0.1,0,0.1,0c0.2,0.7,0.3,1.5,0.5,2.2c0.1,0.8,0.3,1.5,0.5,2.2c0,0.2,0.2,0.2,0.3,0.2c0.8-0.1,1.6-0.2,2.5-0.3
		c0.5,0,1.1-0.1,1.6-0.1c0.2,0,0.4,0,0.4,0.2c0,1.3,0,2.6,0,4c0,0.5,0.2,0.6,0.6,0.6c1.4,0.1,2.8,0.3,4.2,0.4c0,0.1,0,0.2,0,0.3
		c0,0,0,0.1,0,0.1c0,0.1,0,0.2-0.1,0.3c-0.3,1.1-0.5,2.2-0.7,3.3c-0.3,0.5-0.1,0.8,0.4,0.9c0.1,0,0.2,0.1,0.4,0.1
		c0.7,0.3,1.5,0.5,2.2,0.7c0.4,0.3,0.9,0.2,1.3,0.6c-0.3,0.7-0.6,1.5-1,2.2c-0.1,0.2-0.3,0.4-0.3,0.7c-0.3,0.3-0.3,0.7-0.5,1
		c-0.1,0.2,0,0.4,0.2,0.5c0.9,0.5,1.7,1,2.6,1.4c0.4,0.3,0.9,0.4,1.2,0.8c-0.4,0.6-0.9,1.1-1.2,1.7c-0.4,0.6-0.9,1.2-1.3,1.8
		c-0.2,0.2-0.1,0.4,0.1,0.5c0.4,0.4,0.8,0.7,1.3,1.1c0.6,0.6,1.2,1.1,1.8,1.6c0.2,0.2,0.1,0.3-0.1,0.5c-0.6,0.5-1.1,1.1-1.7,1.6
		c-0.4,0.4-0.9,0.7-1.3,1.1c-0.2,0.2-0.2,0.3,0,0.5c0.8,1.1,1.6,2.1,2.3,3.2c0.2,0.3,0.2,0.5-0.2,0.7c-0.3,0.1-0.5,0.3-0.8,0.5
		c-0.5,0.2-1.1,0.5-1.5,0.9c-0.3,0.1-0.5,0.2-0.7,0.4c-0.7,0.3-0.7,0.3-0.4,1c0.1,0.2,0.2,0.5,0.3,0.7c0,0.1,0.1,0.1,0.1,0.2
		c0.3,0.8,0.6,1.5,1,2.2c0.3,0.5,0.1,0.7-0.4,0.8c-0.2,0-0.4,0.2-0.7,0.2c-1,0.3-2,0.6-2.9,0.9c-0.2,0.1-0.3,0.2-0.2,0.4
		c0.3,1.2,0.5,2.5,0.8,3.7c0,0.2,0.1,0.4,0.1,0.7c-0.7,0.1-1.5,0.2-2.2,0.3c-0.7,0.1-1.4,0.1-2.1,0.2c-0.4-0.1-0.3,0.2-0.3,0.4
		c0,1.3,0,2.5,0,3.8c0,0.2,0.1,0.5-0.2,0.6c-1.4-0.2-2.7-0.3-4.1-0.5c-0.4,0-0.5,0.1-0.5,0.4c-0.2,1.2-0.5,2.4-0.7,3.7
		c-0.1,0.4-0.2,0.5-0.6,0.4c-1.2-0.4-2.3-0.8-3.5-1.2c-0.4-0.1-0.6-0.1-0.8,0.3c-0.5,1.2-1,2.3-1.5,3.4c-0.2,0.4-0.3,0.4-0.6,0.2
		c-1.1-0.6-2.2-1.2-3.2-1.9c-0.4-0.3-0.6-0.2-0.8,0.2c-0.7,1-1.4,2-2.1,3c-0.2,0.3-0.4,0.3-0.7,0.1c-0.9-0.9-1.9-1.7-2.8-2.6
		c-0.3-0.2-0.4-0.3-0.7,0c-0.9,0.8-1.8,1.6-2.7,2.5c-0.4,0.3-0.6,0.4-0.8-0.1c-0.2-0.4-0.6-0.7-0.8-1.1c-0.4-0.6-0.9-1.2-1.3-1.9
		c-0.2-0.4-0.4-0.3-0.8-0.1c-1.1,0.6-2.1,1.2-3.2,1.9c-0.4,0.2-0.5,0.2-0.7-0.2c-0.5-1.1-1-2.2-1.5-3.3c-0.2-0.4-0.4-0.5-0.8-0.4
		c-1.2,0.4-2.3,0.8-3.5,1.2c-0.4,0.2-0.5,0-0.6-0.4c-0.2-1.2-0.5-2.5-0.8-3.7c0-0.2-0.1-0.4-0.4-0.4c-1.4,0.2-2.8,0.3-4.3,0.5
		c-0.3-0.2-0.1-0.5-0.2-0.8c0-0.7,0-1.5,0-2.2c0-0.1,0-0.3,0-0.4c0-1.4,0-1.4-1.5-1.4c-0.7-0.1-1.5-0.2-2.2-0.2
		c-0.3-0.1-0.7-0.1-1-0.1c0.1-0.7,0.3-1.4,0.4-2.1c0.2-0.8,0.4-1.6,0.5-2.4c0.1-0.2-0.1-0.3-0.2-0.3c-0.6-0.2-1.3-0.4-1.9-0.6
		c-0.8-0.3-1.5-0.5-2.3-0.8c0-0.2,0.1-0.4,0.2-0.6c0.3-0.8,0.7-1.5,1-2.3c0.2-0.4,0.4-0.8,0.6-1.2c0.1-0.2,0-0.4-0.2-0.5
		c-1.3-0.7-2.5-1.4-3.8-2.1c0-0.1,0-0.1,0-0.2c0.7-0.9,1.4-1.7,1.9-2.7c0.9-1,0.9-1,0-1.8c-0.2-0.1-0.3-0.3-0.5-0.4
		c-0.4-0.5-0.9-0.9-1.4-1.2c-0.2-0.2-0.3-0.4-0.5-0.5c-0.2-0.2-0.1-0.3,0-0.5c0.2-0.1,0.4-0.3,0.6-0.5c0.7-0.5,1.3-1.1,1.9-1.7
		c0.1-0.1,0.2-0.2,0.3-0.3c0.6-0.4,0.6-0.4,0-1.1c-0.1-0.3-0.3-0.5-0.6-0.8c0,0-0.1-0.1-0.1-0.1c0,0,0,0,0,0c-0.5-0.8-1-1.5-1.6-2.2
		c0,0,0-0.1,0-0.1c0.7-0.4,1.5-0.9,2.2-1.3c0.5-0.2,1-0.5,1.4-0.8c0.4-0.1,0.4-0.3,0.3-0.6c-0.3-0.5-0.5-1.1-0.8-1.6
		c-0.3-0.7-0.5-1.4-0.9-2c0-0.1-0.1-0.2-0.1-0.3c0-0.1,0-0.1,0.1-0.2c0.8-0.2,1.5-0.4,2.2-0.7c0.5-0.2,1.1-0.3,1.6-0.5
		c0.6-0.1,0.7-0.4,0.4-0.9c-0.1-0.8-0.3-1.5-0.5-2.2c-0.1-0.4-0.1-0.9-0.3-1.3c-0.1-0.4,0-0.5,0.4-0.5c1-0.1,2.1-0.2,3.1-0.3
		c0.1,0,0.3,0,0.4,0c0.7-0.1,0.8-0.1,0.7-0.9c0-0.5,0-1,0-1.4c0-0.7,0-1.5,0-2.2c0-0.1,0-0.1,0-0.2c0.1,0,0.1-0.1,0.2-0.1
		c0.2,0.1,0.4,0.1,0.6,0.1c0.7,0.1,1.5,0.2,2.2,0.2c0.5,0.1,0.9,0.1,1.4,0.2c0.2,0,0.4,0,0.4-0.3c0.1-0.7,0.3-1.4,0.4-2.1
		c0.1-0.6,0.3-1.1,0.4-1.7c0.1-0.4,0.2-0.5,0.6-0.3c1.2,0.4,2.3,0.7,3.5,1.1c0.4,0.2,0.6,0.2,0.8-0.3c0.1-0.3,0.3-0.7,0.4-1
		c0.4-0.7,0.7-1.5,1-2.2c0.1,0,0.1-0.1,0.1-0.2c0.2-0.4,0.4-0.3,0.7-0.2c1.1,0.7,2.2,1.3,3.3,1.9c0.2,0.1,0.3,0.3,0.5,0
		c0.4-0.5,0.8-1,1.1-1.5c0.4-0.5,0.8-1,1.1-1.6c0.3-0.5,0.6-0.5,1,0c0.4,0.4,0.8,0.7,1.2,1.1c0.2,0.2,0.3,0.4,0.6,0.5c0,0,0,0,0,0.1
		c1.1,1.1,1.1,1.1,2.2,0.1c0.6-0.5,1.1-1.1,1.7-1.6c0,0,0,0,0.1,0c0.8-0.6,0.8-0.6,1.4,0.2c0.3,0.4,0.5,0.7,0.8,1
		c0,0.1,0.1,0.1,0.1,0.2c0.2,0.3,0.5,0.7,0.7,1c0.5,0.8,0.6,0.8,1.3,0.3c0,0,0-0.1,0.1-0.1c0.7-0.4,1.4-0.8,2.1-1.2
		C186.5,102.9,186.5,102.9,186.5,102.8z M149.3,134.5c-0.1,15.4,12.4,27.7,27.5,27.8c15.6,0.1,28-12.5,28.1-27.6
		c0.1-15.7-12.5-28.1-27.8-28.1C161.7,106.7,149.3,119.1,149.3,134.5z"/>
	<path class="st7" d="M149.3,134.5c0-15.4,12.4-27.8,27.8-27.8c15.3,0,27.9,12.4,27.8,28.1c-0.1,15.1-12.4,27.7-28.1,27.6
		C161.7,162.2,149.2,149.9,149.3,134.5z M160.4,150.8c0.2,0.5,0.7,0.8,1.1,1.1c1.4,1.4,3,2.4,4.7,3.3c4,2.1,8.2,3,12.6,2.6
		c2.5-0.2,4.9-0.7,7.2-1.7c2.8-1.1,5.3-2.8,7.5-4.9c1.6-1.5,2.9-3.3,4-5.2c1.8-3.2,2.8-6.6,3.1-10.2c0.1-1.5,0-3.1-0.2-4.6
		c-0.3-2.5-1-4.8-2.1-7.1c-0.9-1.8-1.9-3.5-3.3-5c-0.5-0.5-0.9-1.2-1.6-1.6c-1.8-2-4.1-3.5-6.6-4.6c-3.5-1.6-7.1-2.3-10.9-2.1
		c-2.2,0.1-4.3,0.5-6.4,1.2c-2.5,0.9-4.9,2.2-7,3.9c-1.6,1.3-3,2.7-4.2,4.3c-0.7,1-1.3,2-1.9,3c-1,1.8-1.7,3.7-2.1,5.6
		c-0.6,2.5-0.7,5-0.5,7.6c0.2,1.8,0.5,3.6,1.1,5.3c0.9,2.8,2.4,5.2,4.2,7.5C159.4,150,159.8,150.5,160.4,150.8z"/>
	<linearGradient id="SVGID_5_" gradientUnits="userSpaceOnUse" x1="160.3578" y1="137.8127" x2="200.5467" y2="137.8127">
		<stop  offset="0" style="stop-color:#FFB82A"/>
		<stop  offset="0.1667" style="stop-color:#D49400"/>
		<stop  offset="0.2667" style="stop-color:#FF9E15"/>
		<stop  offset="0.3538" style="stop-color:#FFCD7F"/>
		<stop  offset="0.4256" style="stop-color:#FF9E15"/>
		<stop  offset="0.5564" style="stop-color:#D49400"/>
		<stop  offset="0.6615" style="stop-color:#FF9E15"/>
		<stop  offset="0.7333" style="stop-color:#FFCD7F"/>
		<stop  offset="0.7897" style="stop-color:#FF9E15"/>
		<stop  offset="0.8744" style="stop-color:#D49400"/>
		<stop  offset="1" style="stop-color:#FFB82A"/>
	</linearGradient>
	<path class="st8" d="M186.4,124.8c0.9-0.9,1.8-1.8,2.7-2.7c1.4-1.4,2.8-2.8,4.2-4.2c0.1-0.1,0.1-0.1,0.2-0.2c0.7,0.4,1.1,1,1.6,1.6
		c1.3,1.5,2.4,3.2,3.3,5c1.1,2.2,1.8,4.6,2.1,7.1c0.2,1.5,0.3,3.1,0.2,4.6c-0.2,3.6-1.2,7-3.1,10.2c-1.1,1.9-2.4,3.7-4,5.2
		c-2.2,2.1-4.6,3.7-7.5,4.9c-2.3,0.9-4.7,1.5-7.2,1.7c-4.5,0.3-8.7-0.6-12.6-2.6c-1.7-0.9-3.3-2-4.7-3.3c-0.4-0.4-0.9-0.6-1.1-1.1
		c0.8-0.8,1.5-1.5,2.3-2.3c0.7-0.7,1.4-1.4,2.1-2.1C165.6,145.5,185.1,126.1,186.4,124.8z"/>
	<linearGradient id="SVGID_6_" gradientUnits="userSpaceOnUse" x1="153.3578" y1="130.8127" x2="193.5467" y2="130.8127">
		<stop  offset="0" style="stop-color:#FF9E15"/>
		<stop  offset="0.1667" style="stop-color:#D49400"/>
		<stop  offset="0.2564" style="stop-color:#BF7A00"/>
		<stop  offset="0.3538" style="stop-color:#FFCD7F"/>
		<stop  offset="0.4769" style="stop-color:#BF7A00"/>
		<stop  offset="0.6821" style="stop-color:#BF7A00"/>
		<stop  offset="0.7333" style="stop-color:#FFCD7F"/>
		<stop  offset="0.7795" style="stop-color:#BF7A00"/>
		<stop  offset="1" style="stop-color:#FF9E15"/>
	</linearGradient>
	<path class="st9" d="M167.5,143.8c-0.9,0.9-1.8,1.8-2.7,2.7c-1.4,1.4-2.8,2.8-4.2,4.2c-0.1,0.1-0.1,0.1-0.2,0.2
		c-0.7-0.4-1.1-1-1.6-1.6c-1.3-1.5-2.4-3.2-3.3-5c-1.1-2.2-1.8-4.6-2.1-7.1c-0.2-1.5-0.3-3.1-0.2-4.6c0.2-3.6,1.2-7,3.1-10.2
		c1.1-1.9,2.4-3.7,4-5.2c2.2-2.1,4.6-3.7,7.5-4.9c2.3-0.9,4.7-1.5,7.2-1.7c4.5-0.3,8.7,0.6,12.6,2.6c1.7,0.9,3.3,2,4.7,3.3
		c0.4,0.4,0.9,0.6,1.1,1.1c-0.8,0.8-1.5,1.5-2.3,2.3c-0.7,0.7-1.4,1.4-2.1,2.1C188.3,123.1,168.8,142.5,167.5,143.8z"/>
	<g>
		<path class="st7" d="M168.8,130c0.3,0.3,0.4,0.5,0.7,0.8c-0.6,0.3-1.3,0.6-1.9,0.9c0,0.1,0.1,0.2,0.1,0.2c0.8,0.7,0.8,0.7,0,1.6
			c-0.4,0.4-0.6,0.9-1,1.4c0.1,0.1,0.1,0.1,0.2,0.2c0.4,0,0.9,0,1.5,0c-1.3,1.2-1.9,2.5-1.3,4.2c-0.1,0-0.1,0-0.2,0
			c-0.2-0.2-0.4-0.3-0.5-0.5c-1.1-1.9-1.9-3.9-1.8-6.1c0.1-3.2,2.6-5.6,5.8-5.8c1.1-0.1,2.1-0.2,3.2-0.3c0.6,0,1.2,0,1.9,0
			c-0.2,0.7-0.6,1.1-1.2,1.4c-0.6,0.3-1.3,0.5-1.9,0.7C171.2,129.1,170,129.5,168.8,130z"/>
		<path class="st7" d="M174.5,121.9c0.3-0.1,0.4-0.1,0.7-0.2c-0.3-1.6-1.5-3-1.2-4.8c0.3,0.4,0.5,0.7,0.8,1c0.1,0,0.2,0,0.2,0
			c-0.2-2.7,1.5-4.6,2.8-6.8c0.4,1.8,0.8,3.4,1.2,5.1c0,0,0.1,0,0.4-0.1c-0.2,1.4-1.5,2.1-2,3.3c0.3,0,0.6,0,0.9,0
			c-0.1,0.4-0.2,0.7-0.3,0.9c-0.3,0.7-0.7,1.3-1,1.9c-0.4,1.2-0.7,2.5-1,3.7C175.5,125,174.9,123.5,174.5,121.9z"/>
		<path class="st7" d="M190.7,134.4c-2.1-0.6-4-1.2-5-3.3c-0.2-0.4-0.4-0.5-0.8-0.4c-0.2,0.1-0.4,0.1-0.6,0.1
			c-0.3,0-0.5-0.1-0.5-0.5c0-0.3,0-0.7,0-1.1c-0.5,0.2-1,0.3-1.6,0.5c0.4-0.8,0-1.1-0.5-1.3c-0.9-0.3-1.9-0.7-2.8-1
			c-0.5-0.2-0.9-0.4-1.3-0.6c0-0.1,0-0.2,0-0.3c0.9-0.2,1.9-0.4,2.8-0.5c2.1-0.3,3.9,0.3,5.5,1.7c1.9,1.7,3.7,3.5,4.6,5.9
			C190.5,133.9,190.6,134.1,190.7,134.4z"/>
		<path class="st7" d="M175.3,128.1c-0.1,1.5,0,3.1-1.3,4.3c0.3,0.2,0.6,0.3,0.9,0.5c0.3,0.3,0.7,0.5,0.8,0.9
			c0.2,0.5-0.4,0.7-0.7,0.9c-0.1,0.1-0.2,0.1-0.4,0.3c0.2,0.2,0.4,0.4,0.6,0.6c0.8,0.8,0.8,0.9-0.2,1.4c1,0.8,2,1.6,3,2.4
			c0,0.1,0,0.2-0.1,0.3c-0.6,0-1.1,0.1-1.7,0.1c0.2,0.6,0.4,1.1,0.5,1.7c0,0.2-0.1,0.5-0.2,0.7c-0.2-0.1-0.5-0.2-0.7-0.4
			c-0.9-1.2-1.7-2.3-2.5-3.5c-0.6-0.8-1-1.7-1-2.7c0-1.4,0.1-2.8,0.3-4.2c0.2-1.4,1.1-2.2,2.2-3c0.1-0.1,0.2-0.1,0.3-0.1
			C175.1,128.1,175.2,128.1,175.3,128.1z"/>
		<path class="st7" d="M182.8,120.6c0.1,0.6,0.3,1.1,0.4,1.5c0.1,1,0,1.1-1,0.8c-0.5-0.2-1.1-0.3-1.8-0.5c0.1,0.3,0.2,0.5,0.2,0.7
			c0.3,0.6,0.1,0.9-0.4,1.2c-1,0.6-2,1.3-2.9,2c-0.1,0.1-0.2,0.1-0.5,0.1c0.3-0.7,0.6-1.3,0.9-2c1.7-3.4,4.4-5.7,8-6.9
			c1-0.3,2-0.7,2.9-1.1c0.2,1.2-0.7,2.6-2.4,3.3c0.1,0.2,0.1,0.3,0.2,0.5c0.3,0.7,0.1,1-0.7,0.9c-0.8-0.1-1.6-0.3-2.3-0.4
			C183.3,120.8,183.1,120.7,182.8,120.6z"/>
		<path class="st7" d="M175.7,126.3c-1.5,0-2.3-1.2-3.4-1.9c-0.1,0.3-0.3,0.5-0.4,0.8c-0.3-0.4-0.6-0.7-1-1.2
			c-0.2,0.5-0.3,1-0.6,1.5c-0.1,0.3-0.4,0.5-0.6,0.7c-0.2-0.2-0.5-0.4-0.6-0.7c-0.2-0.4-0.3-0.9-0.5-1.4c-0.7,0.6-1.3,1.1-2,1.7
			c-0.4-1.8-1.9-1.1-3.1-1.5c1.8-1,3.3-2.3,5.3-2.7c1.7-0.4,3.2,0.2,4.5,1.2C174.4,123.8,175.2,124.9,175.7,126.3z"/>
		<path class="st7" d="M179.9,154.8c-0.8-0.4-1.4-0.7-2-1.1c-0.5-0.3-0.2-0.9-0.1-1.3c0-0.2,0.3-0.4,0.5-0.5c0.6-0.3,1.2-0.5,2-0.7
			C180.2,152.4,180.1,153.5,179.9,154.8z"/>
		<path class="st7" d="M178,151.4c0.2-1.2,0.3-2.3,0.4-3.4c0.6,0.3,1.3,0.6,1.8,1c0.2,0.2,0.2,1.1,0,1.3
			C179.7,151,178.9,151.3,178,151.4z"/>
		<path class="st7" d="M180.3,148.4c-0.5-0.4-1.1-0.8-1.6-1.2c-0.5-0.5-0.2-1.2,0.4-1.4c0.2-0.1,0.5-0.1,0.7-0.2
			c0.2-0.1,0.4-0.2,0.8-0.3c0,1.1-0.1,2.1-0.1,3C180.5,148.3,180.4,148.4,180.3,148.4z"/>
		<path class="st7" d="M180.4,139.4c0.1,1.2,0.2,2.3,0.2,3.4c-0.9-0.2-1.5-0.6-1.8-1.3C178.6,140.8,178.9,140.6,180.4,139.4z"/>
		<path class="st7" d="M178.7,145.3c0-0.9,0.1-1.8,0.1-2.6c0.6,0.2,1.1,0.5,1.6,0.7c0.3,0.2,0.4,1.1,0,1.2
			C179.9,144.9,179.3,145.1,178.7,145.3z"/>
		<path class="st7" d="M177.5,154.3c0.8,0.4,1.5,0.7,2.2,1.1c0,0.1,0,0.1,0,0.2c-0.8,0.2-1.7,0.5-2.7,0.8
			C177.2,155.5,177.3,154.9,177.5,154.3z"/>
		<path class="st7" d="M178.8,139.8c0-0.7,0-1.4-0.1-2.1c0.4-0.1,0.8-0.2,1.2-0.3C180.5,138.4,180.2,139.1,178.8,139.8z"/>
		<path class="st7" d="M179.5,156.3c-0.8,1.1-1.9,1.4-2.9,1.8c0.1-1.3,0.1-1.3,1.2-1.4C178.3,156.6,178.8,156.5,179.5,156.3z"/>
		<path class="st7" d="M178.8,137c-0.4-1.7-0.3-1.7,0.7-2.1C180.1,136.6,180.1,136.9,178.8,137z"/>
		<path class="st7" d="M178.2,130.4c0.2,0.5,0.4,1,0.5,1.5c0.1,0.2-0.1,0.4-0.1,0.7c-0.3-0.1-0.7-0.2-0.8-0.4
			C177.3,131.4,177.4,131.1,178.2,130.4z"/>
		<path class="st7" d="M178.4,134.7c-0.1-0.6-0.3-1.1-0.4-1.6c0.3,0,0.6,0,0.9-0.1C179.6,133.9,179.5,134.3,178.4,134.7z"/>
		<path class="st7" d="M177.3,130.5c-0.2-0.6-0.4-1-0.6-1.5c0.3,0,0.6-0.1,0.9-0.1C178.1,129.5,177.6,129.9,177.3,130.5z"/>
		<path class="st7" d="M176.3,127.7c0.7-0.4,0.8-0.4,1,0.4C176.7,128.5,176.5,128.4,176.3,127.7z"/>
	</g>
</g>
<g>
	<path class="st10" d="M87.9,55.3l8.3-21h10.5v1.4c-0.8,0-1.4,0.1-1.9,0.2c-0.5,0.2-0.9,0.4-1.1,0.8c-0.3,0.4-0.4,1-0.5,1.7
		c-0.1,0.7-0.1,1.6-0.1,2.7v14c0,1.2,0,2.1,0.1,2.8c0.1,0.7,0.3,1.2,0.6,1.6c0.3,0.4,0.7,0.6,1.2,0.8s1.3,0.2,2.1,0.2V62H93.6v-1.4
		c0.9,0,1.6-0.1,2.1-0.2s1-0.4,1.3-0.7c0.3-0.4,0.5-0.9,0.6-1.5c0.1-0.7,0.1-1.6,0.1-2.7V38.5h-0.2l-9.7,23.8h-2.7l-10-23.8h-0.1
		v16.6c0,1.2,0,2.1,0.1,2.8c0.1,0.7,0.3,1.2,0.6,1.6c0.3,0.4,0.7,0.6,1.2,0.8s1.3,0.2,2.1,0.2V62H68.1v-1.4c0.9,0,1.6-0.1,2.2-0.2
		c0.6-0.1,1-0.4,1.3-0.7c0.3-0.4,0.5-0.9,0.6-1.5c0.1-0.7,0.1-1.6,0.1-2.7V40.9c0-1,0-1.8-0.1-2.5c-0.1-0.7-0.3-1.2-0.5-1.6
		s-0.6-0.7-1.1-0.8c-0.5-0.2-1.1-0.2-2-0.2v-1.4h10.9l8.4,21H87.9z"/>
	<path class="st10" d="M120.6,49.8v-1.5c0-1.4-0.2-2.4-0.7-3c-0.5-0.6-1.3-1-2.3-1c-0.7,0-1.2,0.2-1.6,0.6c-0.4,0.4-0.7,1-1,1.9
		c-0.2,0.6-0.5,1.1-0.9,1.4c-0.4,0.3-0.9,0.5-1.6,0.5c-0.7,0-1.2-0.2-1.5-0.6s-0.5-1-0.5-1.7c0-1.2,0.6-2.1,1.9-2.7
		c1.3-0.7,3.2-1,5.7-1c2.7,0,4.6,0.5,5.8,1.5s1.7,2.6,1.7,4.9v7.9c0,2,0.4,3.1,1.2,3.1c0.5,0,0.9-0.2,1.3-0.5l0.5,1
		c-0.3,0.6-0.9,1.1-1.6,1.4c-0.7,0.3-1.5,0.5-2.4,0.5c-1.1,0-1.9-0.3-2.5-1c-0.6-0.7-0.9-1.6-0.9-2.8h-0.2c-0.7,1.2-1.6,2.2-2.7,2.8
		s-2.4,1-3.8,1c-1.5,0-2.7-0.4-3.6-1.3c-0.9-0.9-1.4-2-1.4-3.3c0-1.1,0.5-2,1.4-3c0.9-0.9,2.5-1.8,4.7-2.7L120.6,49.8z M120.6,51.7
		c-2,0.9-3.5,1.8-4.6,2.5c-1,0.8-1.5,1.6-1.5,2.4c0,0.7,0.2,1.2,0.6,1.7c0.4,0.4,0.9,0.6,1.4,0.6c0.6,0,1.1-0.1,1.6-0.3
		c0.5-0.2,0.9-0.5,1.3-0.8c0.4-0.3,0.6-0.7,0.8-1.2c0.2-0.5,0.3-1,0.3-1.5V51.7z"/>
	<path class="st10" d="M138.2,56.4c0,0.9,0,1.7,0.1,2.2c0.1,0.5,0.3,1,0.5,1.2c0.3,0.3,0.6,0.5,1.2,0.6c0.5,0.1,1.2,0.1,2,0.1V62
		h-12v-1.4c0.7,0,1.3-0.1,1.7-0.2c0.4-0.1,0.8-0.3,1-0.6c0.2-0.3,0.4-0.7,0.4-1.2c0.1-0.5,0.1-1.3,0.1-2.2V52c0-1.5,0-2.7-0.1-3.6
		c-0.1-0.9-0.2-1.6-0.5-2.1c-0.2-0.5-0.6-0.8-1-1c-0.4-0.2-1-0.2-1.7-0.2v-1.3l7.2-1.3l0.6,4.1h0.1c0.6-1.3,1.5-2.3,2.6-3
		c1.1-0.7,2.2-1.1,3.3-1.1c0.9,0,1.7,0.2,2.2,0.7c0.6,0.5,0.9,1,0.9,1.7c0,0.8-0.2,1.4-0.7,1.9c-0.4,0.5-1.1,0.8-1.8,0.8
		c-0.4,0-0.7-0.1-1-0.2s-0.5-0.3-0.8-0.5c-0.2-0.2-0.5-0.3-0.7-0.5c-0.2-0.2-0.5-0.2-0.7-0.2c-0.5,0-0.9,0.3-1.3,0.9
		c-0.4,0.6-0.7,1.4-1,2.4c-0.2,0.7-0.3,1.5-0.5,2.4c-0.1,0.9-0.2,1.8-0.2,2.7V56.4z"/>
	<path class="st10" d="M172.7,33.9c2.2,0,4.2,0.4,6,1.1c1.9,0.7,3.5,1.8,4.9,3.1c1.4,1.3,2.5,2.8,3.3,4.6c0.8,1.8,1.2,3.6,1.2,5.7
		c0,1.9-0.4,3.8-1.2,5.5s-1.9,3.2-3.3,4.4c-1.4,1.3-3,2.3-4.9,3c-1.9,0.7-3.9,1.1-6,1.1c-2.1,0-4.1-0.4-6-1.1s-3.5-1.7-4.9-3
		c-1.4-1.3-2.5-2.7-3.3-4.4s-1.2-3.5-1.2-5.5c0-2,0.4-3.9,1.2-5.7c0.8-1.8,1.9-3.3,3.3-4.6c1.4-1.3,3-2.3,4.9-3.1
		C168.6,34.3,170.6,33.9,172.7,33.9z M172.7,60c1.4,0,2.7-0.3,3.8-0.8c1.1-0.5,2.1-1.3,2.9-2.3c0.8-1,1.4-2.2,1.8-3.6
		c0.4-1.4,0.6-3,0.6-4.8c0-1.9-0.2-3.6-0.6-5.1c-0.4-1.5-1-2.8-1.8-3.9s-1.8-1.9-2.9-2.4c-1.1-0.6-2.4-0.8-3.8-0.8
		c-1.4,0-2.7,0.3-3.8,0.8c-1.1,0.6-2.1,1.4-2.9,2.4s-1.4,2.4-1.8,3.9c-0.4,1.5-0.6,3.2-0.6,5.1c0,1.8,0.2,3.4,0.6,4.8
		c0.4,1.4,1,2.6,1.8,3.6c0.8,1,1.7,1.8,2.9,2.3C170,59.8,171.3,60,172.7,60z"/>
	<path class="st10" d="M208.7,59c-0.9,1-2,1.8-3.4,2.3c-1.4,0.6-2.8,0.8-4.4,0.8c-1.5,0-2.8-0.2-4-0.7c-1.2-0.5-2.2-1.1-3.1-2
		c-0.9-0.8-1.5-1.9-2-3c-0.5-1.2-0.7-2.5-0.7-3.9c0-1.5,0.3-2.8,0.8-4.1c0.5-1.2,1.2-2.3,2.1-3.1c0.9-0.9,2-1.6,3.3-2
		c1.3-0.5,2.7-0.7,4.2-0.7c1.1,0,2.1,0.1,3,0.3c0.9,0.2,1.7,0.5,2.4,0.9s1.2,0.8,1.6,1.3c0.4,0.5,0.6,1.1,0.6,1.7
		c0,0.7-0.2,1.2-0.6,1.7c-0.4,0.4-0.9,0.6-1.6,0.6c-0.6,0-1-0.1-1.5-0.4s-0.8-0.8-1.2-1.4c-0.4-0.6-0.7-1-0.9-1.4
		c-0.3-0.3-0.5-0.6-0.7-0.8c-0.2-0.2-0.4-0.3-0.6-0.4c-0.2-0.1-0.5-0.1-0.8-0.1c-1.4,0-2.5,0.6-3.2,1.9c-0.8,1.3-1.2,3.1-1.2,5.4
		c0,2.5,0.5,4.4,1.4,5.8c0.9,1.3,2.3,2,4,2c1,0,2-0.2,3-0.6c1-0.4,1.9-0.9,2.8-1.6L208.7,59z"/>
	<path class="st10" d="M229.4,58.7c-2.2,2.5-4.9,3.7-8.2,3.7c-1.5,0-2.8-0.2-4-0.7c-1.2-0.5-2.3-1.1-3.1-2c-0.9-0.9-1.5-1.9-2-3
		s-0.7-2.5-0.7-3.9c0-1.5,0.3-2.8,0.8-4.1c0.5-1.2,1.2-2.3,2.1-3.2s2-1.6,3.3-2.1s2.6-0.8,4.2-0.8c2.5,0,4.5,0.7,5.9,2.1
		c1.4,1.4,2.1,3.3,2.1,5.8c0,0.4-0.1,0.6-0.2,0.7c-0.1,0.1-0.5,0.1-1,0.1H217c-0.1,0.2-0.1,0.6-0.1,1.2c0,2.4,0.5,4.2,1.5,5.6
		c1,1.4,2.4,2.1,4.2,2.1c1,0,2-0.2,3-0.7c1-0.5,2-1.1,2.9-1.9L229.4,58.7z M222.4,49.2c1,0,1.6-0.1,1.9-0.2c0.3-0.1,0.4-0.4,0.4-0.8
		c0-1.1-0.3-1.9-0.9-2.6c-0.6-0.7-1.4-1-2.3-1c-1,0-2,0.4-2.8,1.3c-0.8,0.9-1.3,1.9-1.6,3.3H222.4z"/>
	<path class="st10" d="M243.4,49.8v-1.5c0-1.4-0.2-2.4-0.7-3c-0.5-0.6-1.3-1-2.3-1c-0.7,0-1.2,0.2-1.6,0.6c-0.4,0.4-0.7,1-1,1.9
		c-0.2,0.6-0.5,1.1-0.9,1.4c-0.4,0.3-0.9,0.5-1.6,0.5c-0.7,0-1.2-0.2-1.5-0.6s-0.5-1-0.5-1.7c0-1.2,0.6-2.1,1.9-2.7
		c1.3-0.7,3.2-1,5.7-1c2.7,0,4.6,0.5,5.8,1.5c1.2,1,1.7,2.6,1.7,4.9v7.9c0,2,0.4,3.1,1.2,3.1c0.5,0,0.9-0.2,1.3-0.5l0.5,1
		c-0.3,0.6-0.9,1.1-1.6,1.4s-1.5,0.5-2.4,0.5c-1.1,0-1.9-0.3-2.5-1c-0.6-0.7-0.9-1.6-0.9-2.8h-0.2c-0.7,1.2-1.6,2.2-2.7,2.8
		s-2.4,1-3.8,1c-1.5,0-2.7-0.4-3.6-1.3c-0.9-0.9-1.4-2-1.4-3.3c0-1.1,0.5-2,1.4-3c0.9-0.9,2.5-1.8,4.7-2.7L243.4,49.8z M243.4,51.7
		c-2,0.9-3.5,1.8-4.6,2.5c-1,0.8-1.5,1.6-1.5,2.4c0,0.7,0.2,1.2,0.6,1.7c0.4,0.4,0.9,0.6,1.4,0.6c0.6,0,1.1-0.1,1.6-0.3
		c0.5-0.2,0.9-0.5,1.3-0.8c0.4-0.3,0.6-0.7,0.8-1.2c0.2-0.5,0.3-1,0.3-1.5V51.7z"/>
	<path class="st10" d="M261,56.1c0,1,0,1.8,0.1,2.3s0.2,1,0.4,1.3c0.2,0.3,0.5,0.5,0.9,0.6c0.4,0.1,1,0.2,1.7,0.2V62h-11.3v-1.4
		c0.7,0,1.3-0.1,1.7-0.2c0.4-0.1,0.7-0.3,1-0.6c0.2-0.3,0.4-0.7,0.4-1.2c0.1-0.5,0.1-1.2,0.1-2.2v-4.5c0-1.4,0-2.6-0.1-3.4
		c0-0.9-0.1-1.5-0.2-1.8c-0.1-0.3-0.2-0.6-0.3-0.8c-0.1-0.2-0.3-0.4-0.5-0.5c-0.2-0.1-0.5-0.2-0.9-0.2c-0.4,0-0.8-0.1-1.4-0.1v-1.2
		l6.9-1.4l0.5,3.2h0.1c0.8-1,1.7-1.8,2.8-2.3c1.1-0.6,2.3-0.8,3.6-0.8c1.5,0,2.8,0.2,3.7,0.6c0.9,0.4,1.8,1.1,2.5,2.1
		c0.4,0.6,0.8,1.3,1.1,2.1c0.3,0.9,0.5,2.1,0.5,3.6v5.1c0,1,0,1.8,0.1,2.3c0.1,0.6,0.2,1,0.4,1.3c0.2,0.3,0.5,0.5,0.9,0.6
		c0.4,0.1,1,0.2,1.7,0.2V62h-11.3v-1.4c0.7,0,1.3-0.1,1.7-0.2c0.4-0.1,0.7-0.3,1-0.6c0.2-0.3,0.4-0.7,0.4-1.2s0.1-1.3,0.1-2.1v-4.9
		c0-1.2-0.1-2.3-0.2-3.1c-0.1-0.8-0.4-1.5-0.7-2c-0.3-0.5-0.8-0.9-1.3-1.1c-0.5-0.2-1.2-0.3-2-0.3c-0.8,0-1.4,0.2-2,0.6
		c-0.6,0.4-1,1-1.4,1.8c-0.2,0.4-0.4,1-0.6,1.7s-0.2,1.4-0.2,2.1V56.1z"/>
	<path class="st10" d="M290.3,49.8v-1.5c0-1.4-0.2-2.4-0.7-3c-0.5-0.6-1.3-1-2.3-1c-0.7,0-1.2,0.2-1.6,0.6c-0.4,0.4-0.7,1-1,1.9
		c-0.2,0.6-0.5,1.1-0.9,1.4c-0.4,0.3-0.9,0.5-1.6,0.5c-0.7,0-1.2-0.2-1.5-0.6c-0.4-0.4-0.5-1-0.5-1.7c0-1.2,0.6-2.1,1.9-2.7
		c1.3-0.7,3.2-1,5.7-1c2.7,0,4.6,0.5,5.8,1.5s1.7,2.6,1.7,4.9v7.9c0,2,0.4,3.1,1.2,3.1c0.5,0,0.9-0.2,1.3-0.5l0.5,1
		c-0.3,0.6-0.9,1.1-1.6,1.4c-0.7,0.3-1.5,0.5-2.4,0.5c-1.1,0-1.9-0.3-2.5-1c-0.6-0.7-0.9-1.6-0.9-2.8h-0.2c-0.7,1.2-1.6,2.2-2.7,2.8
		c-1.1,0.6-2.4,1-3.8,1c-1.5,0-2.7-0.4-3.6-1.3c-0.9-0.9-1.4-2-1.4-3.3c0-1.1,0.5-2,1.4-3c0.9-0.9,2.5-1.8,4.7-2.7L290.3,49.8z
		 M290.3,51.7c-2,0.9-3.5,1.8-4.6,2.5c-1,0.8-1.5,1.6-1.5,2.4c0,0.7,0.2,1.2,0.6,1.7c0.4,0.4,0.9,0.6,1.4,0.6s1.1-0.1,1.6-0.3
		c0.5-0.2,0.9-0.5,1.3-0.8c0.4-0.3,0.6-0.7,0.8-1.2c0.2-0.5,0.3-1,0.3-1.5V51.7z"/>
</g>
</svg>
