<?xml version="1.0" encoding="utf-8"?>
<!-- Generator: Adobe Illustrator 22.0.1, SVG Export Plug-In . SVG Version: 6.00 Build 0)  -->
<svg version="1.1" id="Capa_1" xmlns="http://www.w3.org/2000/svg" xmlns:xlink="http://www.w3.org/1999/xlink" x="0px" y="0px"
	 viewBox="0 0 91 36.4" style="enable-background:new 0 0 91 36.4;" xml:space="preserve">
<style type="text/css">
	.st0{fill:#13203D;}
</style>
<g>
	<g>
		<path class="st0" d="M0,35.6c0,0,4.3-19.2,16-19.7c11.7-0.5,27.7,19.7,38.3,19.7S0,35.6,0,35.6z"/>
		<path class="st0" d="M36.7,23.4c0,0,16.5,2.1,25-7.5S83.5,24.4,91,35.6H56.9C56.9,35.6,41.5,31.9,36.7,23.4z"/>
		<path class="st0" d="M33.5,21.8c0.5,0.5,12.2,0.3,15.4-0.7c0-0.2,0-0.4,0-0.7C49,14.1,43.8,9,37.5,9c-5.5,0-10,3.8-11.2,8.9
			C28.9,19.2,33.2,21.4,33.5,21.8z"/>
		<g>
			<path class="st0" d="M23.9,10.9"/>
			<path class="st0" d="M42.7,6.2"/>
			<path class="st0" d="M19.2,15.3"/>
			<path class="st0" d="M52.8,18.6c0-0.7,1.4-1.2,2.4-1.5c-1,0.1-2.4,0-2.4-1.4c0-2,4-3.5,5-3.9c-1.1,0.4-6.2,2.1-7.3,1.1
				c-1.2-1.1,1.2-2.8,1.2-2.8s-2.9,1.1-3.5-0.6c-0.6-1.7,2.3-5.7,2.3-5.7s-4,4-6.3,4.5c-1.4,0.3-1.5-1.2-1.4-2.2
				c-0.5,0.5-1.7,0.5-2.6,0.5c-1.2,0-1.7-6.2-1.7-6.2s-1.7,6.2-3.5,6.2c-1.7,0-1.7-2.3-1.7-2.3s0,2.3-1.7,2.8s-5.2-4.5-5.2-4.5
				s2.9,7.4,0,7.9c-1.1,0.2-1.8,0.3-2.3,0.2c0.3,0.3,0.6,0.9,0.6,2c0,1.8-3.1,2.2-5.3,2.3c2.4,0.4,5.3,1.7,5.3,1.7l1,0.6
				c1.4-5.2,6.2-9.1,12-9.1c6.8,0,12.4,5.5,12.4,12.2c0,0.2,0,0.5,0,0.7c-0.6,0.2,2.3-0.4,2.3-0.4l6.3-2.3
				C58.5,18.6,52.8,19.8,52.8,18.6z"/>
			<path class="st0" d="M55.1,17.2c0.6-0.1,1.1-0.2,1.1-0.2S55.7,17,55.1,17.2z"/>
			<path class="st0" d="M57.7,11.9c0.1,0,0.2-0.1,0.2-0.1S57.9,11.9,57.7,11.9z"/>
		</g>
	</g>
</g>
</svg>
