<?xml version="1.0" encoding="utf-8"?>
<!-- Generator: Adobe Illustrator 22.0.1, SVG Export Plug-In . SVG Version: 6.00 Build 0)  -->
<svg version="1.1" id="Capa_1" xmlns="http://www.w3.org/2000/svg" xmlns:xlink="http://www.w3.org/1999/xlink" x="0px" y="0px"
	 viewBox="0 0 62.6 31.8" style="enable-background:new 0 0 62.6 31.8;" xml:space="preserve">
<style type="text/css">
	.st0{fill:#FFFFFF;}
	.st1{fill:#0071BC;}
	.st2{fill:#29ABE2;}
	.st3{opacity:0.5;fill:#0071BC;}
	.st4{fill:#008CD2;}
	.st5{opacity:0.4;fill:#FFFFFF;}
	.st6{fill:none;stroke:#FFFFFF;stroke-width:1.0964;stroke-miterlimit:10;}
	.st7{fill:#13203D;}
</style>
<g>
	<g>
		<path class="st0" d="M53.8,28H8.2C5.9,28,4,26.1,4,23.8V8.2C4,5.9,5.9,4,8.2,4h45.7C56.1,4,58,5.9,58,8.2v15.7
			C58,26.1,56.1,28,53.8,28z"/>
		<path class="st1" d="M58,24c0,0,1-5-5-8c0,0,3,5,1,7s-2,3-1,4s2.6,0.6,2.6,0.6S58,27,58,24S58,24,58,24z"/>
		<path class="st2" d="M22,12c0,0-0.8-6-11.9-8c0,0-3.8-0.4-4.9,1.3C4.4,6.2,4.1,6.9,4,8.8c0,0.2,0.1,0.8,0.4,1
			C5.1,10.5,6.7,11.5,9,10C12,8,21,10,22,12z"/>
		<path class="st1" d="M10,10c0,0,8.5-1.7,13,3.5c0.4,0.4,1.6,2.2,2.3,3.4c1.1,1.8,2.3,4.6,1.7,7c-0.9,3.6-7.5,4-9.5,0.3
			c-0.2-0.4-0.5-1.9-0.1-2.9c0.1-0.4,0.3-0.9,0.6-1.4C19,18,21,15,10,10z"/>
		<path class="st1" d="M4,10.1c0,0,2,2.9,6,0.9c0,0,2,0,2,1s-1,1-2,1S5,12.2,4,10.1z"/>
		<path class="st2" d="M13,12c0,0,1.9,1,3.1,1.9c0.5,0.4,1.2,1.4,1.4,1.8c0.4,0.7,0.7,1.7-0.5,2.3c0,0-2,1-2-1S15,15,13,12z"/>
		<path class="st3" d="M4,10.6c0,0,3,4.4,7,3.4c2.7-0.7,3.1,0.5,3.1,1.3c0,0.4-0.3,0.9-0.7,1.1C12.9,16.7,12.1,17,11,17
			C9,17,4,13.2,4,10.6z"/>
		<path class="st2" d="M4,12.2c0,0,6,6.8,5,8.8s-2,2-3,2s-2-0.9-2-2c0,0,0-1,1-2S5,13.3,4,12.2z"/>
		<path class="st1" d="M9,17c0,0,3,1,4,0s2,0,1,1S10,18,9,17"/>
		<path class="st1" d="M18,18c0,0-2,2-3,1c-0.7-0.7-1.4-0.4-1.7-0.2c-0.2,0.1-0.3,0.3-0.2,0.5c0.1,0.3,0.3,0.7,1,0.7
			C15,20,17,20,18,18z"/>
		<path class="st4" d="M9,18c0,0,2,2,1,3s0,2,0,2s2,1,2-1S10,19,9,18z"/>
		<path class="st2" d="M10,18c0,0,3,3,5,3s1,3-1,2C14,23,11,20,10,18z"/>
		<path class="st4" d="M14.4,4c0,0,19.6,7,16.6,17s11,8,12,4S40.8,10,14.4,4z"/>
		<path class="st1" d="M43,28c0,0,6.6-6.6-4-15.2c-0.3-0.3-1.1-1.4-1-2.2c0.1-2,1-5.2,6-1.6C51,14,46,28,43,28z"/>
		<path class="st2" d="M18,4c0,0,12,1,14,3s5,1,5-1S18,4,18,4z"/>
		<path class="st2" d="M52.3,4c0.2-0.2,2.9,0,3.7,0.6c1,0.7,2.2,1.7,2,4.1C57.8,11,49,10,50,17C50,17,43.7,8,52.3,4z"/>
		<path class="st3" d="M33.9,4c0,0,7.1,1,9.1,3s5,0,4-2S33.9,4,33.9,4z"/>
		<path class="st4" d="M4,23c0,0,1,3,4,2s3.1,3,1.1,3s-2.4-0.2-3.7-1.1C4,26,4,23,4,23z"/>
		<path class="st2" d="M13,23c0,0,1.9,2.8,4.7,3c0.1,0,0.5,0.1,0.6,0.3c0.4,0.6,1,1.7-1.3,1.7C14,28,13,23,13,23z"/>
		<path class="st3" d="M21,8c0,0,4,4,4,6s1,3,2,2S26,11,21,8z"/>
		<path class="st4" d="M28,13c0,0,1,5-1,5c-1.5,0,0.3,2.1,1.3,2.5C28.7,20.6,30,17,28,13z"/>
		<path class="st2" d="M23,28c0,0,5,0,5-5s3-1,2,0S28,28,23,28z"/>
		<path class="st4" d="M51,16c0,0,3,5,0,7s-4-2-3-3S52,20,51,16z"/>
		<path class="st2" d="M45.4,28c0,0,0.6-2,2.6-3s3,0,3,0s1,1,0,2S47.8,26,45.4,28z"/>
		<path class="st3" d="M58,20c0,0-1-4-4-5s0-5,2-3S58,20,58,20z"/>
		<path class="st3" d="M38,6c0,0-0.8,2.5-4.1,2.9c-0.3,0-0.9,0.4-0.8,0.8c0.2,0.8,0.9,1.9,2.9,1.3C39,10,38,6,38,6z"/>
		<path class="st3" d="M30,24.3c0,0,0,1.8-0.9,1.8s-1.9,2.7,0,1.8S30,24.3,30,24.3z"/>
		<path class="st3" d="M9,24c0,0,1,1,2,0s2-1,2,0S10,25,9,24z"/>
		<path class="st2" d="M10,25c0,0,2,2,3,1s2,2,1,2S12,28,10,25z"/>
		<path class="st5" d="M53.8,28H8.2C5.9,28,4,26.1,4,23.8V8.2C4,5.9,5.9,4,8.2,4h45.7C56.1,4,58,5.9,58,8.2v15.7
			C58,26.1,56.1,28,53.8,28z"/>
		<path class="st6" d="M54.9,29.8H7.1c-2.5,0-4.6-2-4.6-4.6V7.1c0-2.5,2-4.6,4.6-4.6h47.9c2.5,0,4.6,2,4.6,4.6v18.2
			C59.5,27.8,57.5,29.8,54.9,29.8z"/>
	</g>
	<g>
		<g>
			<path class="st7" d="M7.9,11.4c0.2,0,0.4,0,0.7,0s0.4,0,0.6,0c0.2,0,0.4,0,0.5,0c0.2,0,0.4,0,0.6,0s0.4,0,0.7,0s0.5,0,0.7,0
				c0,0.1,0,0.3,0,0.4s-0.1,0.3-0.1,0.4c-0.3,0-0.5,0.1-0.7,0.2s-0.2,0.2-0.2,0.4c0,0.2,0,0.5,0.1,0.9c0.2,0.8,0.5,1.7,0.7,2.6
				c0.2,0.9,0.4,1.8,0.6,2.7l-0.3-0.2c0.6-0.9,1-1.8,1.5-2.6c0.4-0.8,0.9-1.7,1.2-2.5c0.2-0.4,0.3-0.7,0.3-0.9s0-0.4-0.1-0.5
				c-0.1-0.1-0.3-0.2-0.6-0.3c0-0.2-0.1-0.5,0-0.8c0.2,0,0.4,0,0.7,0c0.2,0,0.5,0,0.7,0c0.2,0,0.5,0,0.7,0c0.2,0,0.4,0,0.7,0
				c0,0.3-0.1,0.5-0.2,0.8c-0.1,0.1-0.3,0.1-0.4,0.2c-0.1,0.1-0.3,0.3-0.4,0.5c-0.1,0.2-0.3,0.6-0.5,1c-0.6,1.1-1.2,2.3-1.8,3.5
				c-0.6,1.2-1.3,2.3-2,3.6c-0.1,0-0.2,0.1-0.4,0.1c-0.1,0-0.3,0-0.4,0c-0.2-0.9-0.4-1.8-0.6-2.6c-0.2-0.9-0.4-1.7-0.6-2.5
				c-0.2-0.8-0.4-1.6-0.6-2.2c-0.1-0.4-0.2-0.7-0.3-0.9c-0.1-0.2-0.2-0.3-0.3-0.4c-0.1-0.1-0.2-0.1-0.4-0.2c0-0.1,0-0.2,0-0.4
				S7.9,11.5,7.9,11.4z"/>
			<path class="st7" d="M17.1,21c-0.5,0-0.9-0.1-1.1-0.3c-0.3-0.2-0.5-0.4-0.6-0.8c-0.1-0.3-0.2-0.7-0.2-1.1s0-0.8,0.1-1.2
				c0.1-0.7,0.4-1.4,0.7-1.9c0.4-0.5,0.8-0.9,1.2-1.1c0.5-0.3,1-0.4,1.5-0.4c0.4,0,0.8,0.1,1.1,0.2c0.3,0.2,0.5,0.4,0.6,0.6
				c0.1,0.3,0.1,0.5,0.1,0.8c-0.1,0.3-0.2,0.6-0.4,0.8s-0.5,0.5-0.9,0.7s-0.7,0.4-1.1,0.5c-0.4,0.1-0.8,0.2-1.2,0.2l0-0.7
				c0.6,0,1.1-0.2,1.5-0.4s0.7-0.6,0.7-1c0.1-0.3,0-0.5-0.1-0.7s-0.3-0.3-0.5-0.3c-0.3,0-0.6,0.2-0.8,0.5c-0.3,0.4-0.5,0.9-0.6,1.7
				C17,17.8,17,18.2,17,18.5s0.1,0.7,0.2,0.9s0.4,0.4,0.8,0.4c0.3,0,0.5-0.1,0.7-0.2c0.2-0.1,0.5-0.3,0.7-0.5
				c0.1,0.1,0.1,0.2,0.2,0.3c0,0.1,0.1,0.2,0.1,0.4c-0.3,0.4-0.7,0.6-1.1,0.9S17.7,21,17.1,21z"/>
			<path class="st7" d="M23.6,14.3c0.2,0.1,0.3,0.2,0.3,0.3s0,0.4,0,0.6c0,0.2-0.1,0.5-0.2,0.9c-0.1,0.3-0.2,0.7-0.4,1h0l0.3-0.6
				c0.2-0.4,0.4-0.8,0.7-1.1s0.5-0.6,0.7-0.8c0.3-0.2,0.6-0.3,0.9-0.3c0.3,0,0.5,0.1,0.7,0.2c-0.1,0.3-0.2,0.6-0.3,1
				c-0.1,0.4-0.1,0.7-0.1,1c-0.1,0.1-0.3,0.1-0.4,0.1c-0.2,0-0.3,0-0.5,0c0-0.3,0-0.5,0-0.6c0-0.1-0.1-0.2-0.2-0.2
				c-0.1,0-0.2,0.1-0.4,0.2c-0.2,0.1-0.3,0.4-0.5,0.7c-0.2,0.3-0.3,0.7-0.5,1.2c-0.2,0.5-0.3,1.1-0.4,1.7l-0.2,1.1h-1.8l0.8-3.9
				c0.1-0.4,0.1-0.7,0.1-0.9c0-0.2-0.1-0.3-0.2-0.4s-0.3-0.1-0.6-0.1c0-0.1,0-0.2,0-0.4c0-0.1,0.1-0.2,0.1-0.3
				c0.2,0,0.5-0.1,0.7-0.1c0.3-0.1,0.5-0.1,0.8-0.2C23.2,14.5,23.4,14.4,23.6,14.3z"/>
			<path class="st7" d="M38.6,21c-0.4,0-0.6-0.1-0.8-0.3c-0.2-0.2-0.2-0.4-0.2-0.8s0.1-0.8,0.2-1.3l0.3-1.1c0.2-0.7,0.2-1.1,0.2-1.4
				c0-0.3-0.1-0.4-0.3-0.4s-0.5,0.1-0.8,0.4c-0.3,0.3-0.6,0.7-0.9,1.2s-0.5,1.2-0.7,2.1l-0.3,1.5h-1.7l0.6-3c0.1-0.6,0.2-1,0.2-1.4
				c0-0.3,0-0.5,0-0.7c-0.1-0.1-0.2-0.2-0.3-0.2c-0.2,0-0.5,0.1-0.8,0.4c-0.3,0.3-0.6,0.7-0.9,1.2s-0.5,1.2-0.7,2.1l-0.3,1.5h-1.7
				l0.8-3.9c0.1-0.4,0.1-0.7,0.1-0.9c0-0.2-0.1-0.3-0.2-0.4c-0.1-0.1-0.3-0.1-0.6-0.1c0-0.1,0-0.2,0-0.4c0-0.1,0.1-0.2,0.1-0.3
				c0.2,0,0.5-0.1,0.8-0.1c0.3-0.1,0.6-0.1,0.8-0.2s0.5-0.2,0.7-0.3c0.2,0.1,0.3,0.2,0.3,0.3c0.1,0.1,0.1,0.3,0,0.6
				c-0.1,0.3-0.1,0.7-0.2,0.9S32,16.7,31.9,17h0l0.2-0.5c0.1-0.2,0.3-0.5,0.5-0.7c0.2-0.3,0.4-0.5,0.7-0.7c0.2-0.2,0.5-0.4,0.8-0.5
				c0.3-0.1,0.5-0.2,0.8-0.2c0.3,0,0.5,0.1,0.7,0.2c0.2,0.1,0.3,0.3,0.4,0.5s0.1,0.5,0.1,0.9c0,0.2-0.1,0.3-0.1,0.5
				c0,0.2-0.1,0.4-0.2,0.6h0l0.2-0.5c0.1-0.3,0.3-0.5,0.5-0.8c0.2-0.3,0.4-0.5,0.7-0.7s0.5-0.4,0.8-0.5s0.6-0.2,0.8-0.2
				c0.5,0,0.9,0.3,1.1,0.7c0.2,0.5,0.2,1.2-0.1,2.1l-0.4,1.4c-0.1,0.4-0.2,0.6-0.2,0.8s0,0.3,0,0.3s0.1,0.1,0.2,0.1
				c0.1,0,0.2,0,0.3-0.1c0.1-0.1,0.2-0.1,0.4-0.3c0.1,0.1,0.1,0.2,0.2,0.3c0.1,0.1,0.1,0.2,0.1,0.3c-0.3,0.3-0.6,0.5-0.9,0.7
				S38.9,21,38.6,21z"/>
			<path class="st7" d="M46.3,14.5l-0.5,0.8c-0.1-0.1-0.3-0.1-0.5-0.2c-0.2,0-0.4-0.1-0.5-0.1c-0.5,0-0.9,0.2-1.2,0.6
				c-0.3,0.4-0.5,0.9-0.6,1.6c-0.2,0.7-0.2,1.3-0.1,1.7c0.1,0.4,0.2,0.6,0.5,0.6c0.2,0,0.4-0.1,0.6-0.4c0.3-0.3,0.5-0.6,0.8-1.2
				c0.3-0.5,0.5-1.2,0.6-1.9l0.3-1.1l0.6,0.1l-0.7,3h-0.3c-0.2,0.5-0.4,1-0.7,1.4c-0.3,0.4-0.6,0.8-1,1S42.9,21,42.5,21
				c-0.3,0-0.6-0.1-0.8-0.2c-0.2-0.1-0.4-0.4-0.5-0.6c-0.1-0.3-0.2-0.6-0.2-1s0-0.8,0.1-1.3c0.1-0.7,0.4-1.3,0.7-1.8
				c0.3-0.5,0.8-1,1.3-1.3c0.5-0.3,1.2-0.5,1.9-0.5c0.2,0,0.4,0,0.7,0.1S46.2,14.5,46.3,14.5z M45.9,10.9c0.3-0.1,0.6-0.1,0.9-0.1
				c0.3,0,0.5,0.1,0.7,0.2c-0.4,0.3-0.8,0.7-1.1,1.1c-0.4,0.4-0.7,0.8-1,1.3c-0.3,0-0.5-0.1-0.7-0.3c0.2-0.3,0.3-0.6,0.5-0.9
				c0.2-0.3,0.3-0.6,0.4-0.8C45.7,11.3,45.8,11.1,45.9,10.9z M47.2,14.3c0.1,0,0.1,0.1,0.2,0.2s0.1,0.2,0.1,0.4c0,0.2,0,0.4-0.1,0.7
				l-0.7,3c-0.1,0.5-0.2,0.8-0.2,1c0,0.1,0.1,0.2,0.2,0.2c0.1,0,0.2,0,0.3-0.1c0.1-0.1,0.2-0.1,0.4-0.3c0.1,0.1,0.1,0.2,0.2,0.3
				s0.1,0.2,0.1,0.3c-0.3,0.3-0.5,0.5-0.8,0.7s-0.6,0.3-1,0.3c-0.3,0-0.5-0.1-0.6-0.2c-0.1-0.1-0.3-0.3-0.3-0.4s-0.1-0.4-0.1-0.6
				c0-0.2,0-0.4,0.1-0.6c0-0.1,0.1-0.2,0.1-0.4c0-0.1,0.1-0.3,0.2-0.4c0.1-0.1,0.1-0.3,0.2-0.4l0.5-2.2l-0.3-1.3c0.3,0,0.6,0,0.9,0
				S47,14.4,47.2,14.3z"/>
			<path class="st7" d="M51.6,14.3c0.4,0,0.7,0,1.1,0.1c0.4,0.1,0.7,0.2,0.9,0.3c-0.2,0.5-0.2,1-0.3,1.7c-0.1,0.1-0.3,0.1-0.4,0.1
				c-0.2,0-0.3,0-0.5,0c0-0.5-0.1-0.9-0.2-1.1c-0.2-0.2-0.4-0.4-0.7-0.4c-0.2,0-0.4,0-0.5,0.1c-0.1,0.1-0.2,0.2-0.2,0.4
				c0,0.2,0,0.4,0.1,0.6s0.3,0.3,0.5,0.5c0.2,0.2,0.4,0.3,0.6,0.5c0.2,0.2,0.4,0.4,0.6,0.6c0.2,0.2,0.3,0.5,0.4,0.7
				c0.1,0.3,0.1,0.6,0,0.9c-0.1,0.4-0.2,0.7-0.4,0.9s-0.5,0.4-0.8,0.5c-0.4,0.1-0.8,0.2-1.3,0.2c-0.5,0-0.9-0.1-1.3-0.2
				c-0.4-0.1-0.7-0.2-0.9-0.4c0.1-0.3,0.2-0.6,0.2-0.8c0-0.3,0.1-0.5,0.1-0.8c0.3-0.1,0.6-0.2,0.9-0.1c0,0.5,0.1,0.9,0.2,1.1
				c0.2,0.3,0.4,0.4,0.8,0.4c0.2,0,0.4,0,0.6-0.1s0.2-0.2,0.3-0.4c0-0.2,0-0.4-0.2-0.6c-0.2-0.2-0.4-0.4-0.6-0.6
				c-0.2-0.2-0.5-0.4-0.7-0.7c-0.2-0.2-0.4-0.5-0.6-0.8c-0.1-0.3-0.2-0.7-0.1-1.1c0.1-0.4,0.2-0.6,0.4-0.9c0.2-0.2,0.5-0.4,0.8-0.5
				C50.8,14.4,51.2,14.3,51.6,14.3z"/>
		</g>
	</g>
</g>
</svg>
