<?xml version="1.0" encoding="utf-8"?>
<!-- Generator: Adobe Illustrator 22.0.1, SVG Export Plug-In . SVG Version: 6.00 Build 0)  -->
<svg version="1.1" id="Capa_1" xmlns="http://www.w3.org/2000/svg" xmlns:xlink="http://www.w3.org/1999/xlink" x="0px" y="0px"
	 viewBox="0 0 65 33.3" style="enable-background:new 0 0 65 33.3;" xml:space="preserve">
<style type="text/css">
	.st0{fill:#13203D;}
</style>
<g>
	<g>
		<path class="st0" d="M13.4,4.9c1.9-1.2,3.6-2.7,5.7-3.6c1.2-0.5,2.9-0.4,4.1,0.1c1.2,0.5,2,0.8,3.3,0.3c1.6-0.6,3.3-1.1,4.9-1.1
			c1.8,0,3.5,0.5,5.3,0.8c0.5,0.1,1,0.1,1.5,0.3c1.2,0.5,2.2,0.2,3.4-0.3c1.3-0.5,3.2-0.5,4.5,0c1.9,0.8,3.4,2.3,5,3.7
			c-4.3,0.6-7.9,2.3-10.7,5.5c-2.8,3.3-3.8,7.1-3.5,11.8c-1.9-2.1-2.6-4.1-2.3-6.3c0.1-1.5,0.6-3,1-4.5c0.4-1.5-0.5-2.5-2-2.3
			c-0.8,0.1-1.6,0.1-2.4,0c-1.5-0.2-2.3,0.8-2,2.3c0.4,2.1,0.9,4.3,0.8,6.3c-0.1,1.6-1.1,3.1-2,4.5c0.3-4.4-0.7-8.3-3.5-11.6
			C21.7,7.5,18,5.8,13.7,5.4C13.6,5.2,13.5,5,13.4,4.9z M32.3,8.1c1.6,0,3-1.4,3.1-3c0-1.7-1.3-3-3-3c-1.7,0-3,1.3-3,3
			C29.3,6.6,30.7,8.1,32.3,8.1z"/>
		<path class="st0" d="M51.8,7.4c7.2,0,12.9,5.7,12.9,12.9c0,7.2-5.7,12.9-12.9,12.9c-7.3,0-13-5.7-13-13
			C38.8,13.1,44.5,7.4,51.8,7.4z M51.7,30c5.4,0,9.7-4.3,9.8-9.7c0-5.4-4.4-9.8-9.8-9.8c-5.4,0-9.8,4.4-9.8,9.8
			C42,25.7,46.3,30,51.7,30z"/>
		<path class="st0" d="M13,7.4c7.2,0,12.9,5.7,12.8,12.9c0,7.2-5.8,12.9-13.1,12.8C5.7,33.2,0,27.4,0,20.3C0,13,5.7,7.4,13,7.4z
			 M13,10.5c-5.4,0-9.8,4.4-9.8,9.7c0,5.4,4.4,9.8,9.8,9.8c5.4,0,9.8-4.3,9.8-9.7C22.7,14.9,18.3,10.5,13,10.5z"/>
		<path class="st0" d="M32.3,7.1c-0.6-1-1.4-1.6-1.2-2c0.1-0.6,0.9-1,1.5-1.4c0.4,0.5,1.2,1,1.2,1.5C33.7,5.7,32.9,6.2,32.3,7.1z"/>
		<path class="st0" d="M44.2,20.5c-1-2.2,0.3-5.4,2.8-7.1c2.6-1.9,6.4-1.9,8.3-0.2c-2.2,0.4-4.7,0.6-6.8,1.5
			C46,15.7,44.9,18.1,44.2,20.5z"/>
		<path class="st0" d="M16.9,13.8c-5.9-1.1-9.7,1.2-11.4,7c-1.1-2.4,0.4-5.8,3.1-7.5C11.3,11.5,15.2,11.6,16.9,13.8z"/>
	</g>
</g>
</svg>
